<svg id="Layer_1" data-name="Layer 1" xmlns="http://www.w3.org/2000/svg" viewBox="0 0 367.12 346.34"><defs><style>.cls-1{fill:#1a565f;}.cls-2{fill:#287075;}.cls-3{fill:#23606e;}.cls-4{fill:#296369;}.cls-5{fill:#153538;}.cls-6{fill:#215b68;}.cls-7{fill:#52878d;}.cls-8{fill:#b09e86;}.cls-9{fill:#8b8683;}.cls-10{fill:#826a42;}.cls-11{fill:#e8e0db;}.cls-12{fill:#1e5054;}.cls-13{fill:#897046;}.cls-14{fill:#c0a467;}.cls-15{fill:#a4947a;}.cls-16{fill:#c2c2c9;}.cls-17{fill:#517979;}.cls-18{fill:#9b804e;}.cls-19{fill:#645439;}.cls-20{fill:#aca49f;}.cls-21{fill:#8c9299;}.cls-22{fill:#ac8d53;}.cls-23{fill:#87826e;}.cls-24{fill:#919598;}.cls-25{fill:#c4bfba;}.cls-26{fill:#287277;}.cls-27{fill:#2e787c;}.cls-28{fill:#23666c;}.cls-29{fill:#164e56;}.cls-30{fill:#1c5962;}.cls-31{fill:#175158;}.cls-32{fill:#9f8f5e;}.cls-33{fill:#378388;}.cls-34{fill:#b49258;}.cls-35{fill:#1b5557;}.cls-36{fill:#947b4d;}.cls-37{fill:#367e84;}.cls-38{fill:#28757a;}.cls-39{fill:#dad9d1;}.cls-40{fill:#bdc0c2;}.cls-41{fill:#1e6272;}.cls-42{fill:#6f706c;}.cls-43{fill:#d7b674;}.cls-44{fill:#94763e;}.cls-45{fill:#b3b6bd;}.cls-46{fill:#e0dad8;}.cls-47{fill:#c09e5b;}.cls-48{fill:#c2a05f;}.cls-49{fill:#358388;}.cls-50{fill:#246b71;}.cls-51{fill:#75582d;}.cls-52{fill:#050e11;}.cls-53{fill:#11363b;}.cls-54{fill:#b2b7c2;}.cls-55{fill:#103a45;}.cls-56{fill:#89939b;}.cls-57{fill:#a39f85;}.cls-58{fill:#466864;}</style></defs><path class="cls-1" d="M1001,493.05c-6.27,2.11-12.94,2.34-19.3,3.94-5.42,1.35-10.85,1.07-16.3,1-5.15,0-10.3-.11-15.45-.16-1.42-1.68-3.33-.49-5-.87h0c.06-.79-.15-1.74,1-2,1.91-.39,3.67-1.31,5.52-1.73s3.69-1.22,5.53-1.65,3.7.52,5.64.37c3.06-.22,6.25,1.09,9.55-.82-1.88-2.45-4.61-3.05-6.59-1.88-2.91,1.71-5.62.33-8.38.63a1.62,1.62,0,0,1-1.85-1.7c3.22-.85,6.63.58,9.77-.87s6.89,1.2,9.66-1.82c-1.07-1.7-2.7-2.11-4.26-2.53a31.67,31.67,0,0,1-8.75-4c-3-1.89-5.76-4-9.23-5.23-4-1.36-5.32-5.47-7.53-8.61a2,2,0,0,1,0-1.92c1.64-1.92.38-3.87-.22-5.45a30.16,30.16,0,0,1-1.88-11c0-3.09.26-6.15-.81-9.26a7.07,7.07,0,0,1,.47-5.78c1.56-2.66,1.28-5.31.76-8.4a44.43,44.43,0,0,0-3.13-10.93c-1.62-3.68-3.7-7.62-3.3-12a3,3,0,0,0-.73-1.76c-1.83-2.55-.45-6.27-3.15-8.54-.25-.21,0-1.28.28-1.85,1.44-3.2.82-7.14,3.52-9.88.08-5,2.6-9.27,4-13.87.5-1.62,1.19-3.55-.28-5.41a23.38,23.38,0,0,0-17.2-9A56.93,56.93,0,0,0,902.5,352c-5,1.5-10,2.86-13.77,6.76a9.49,9.49,0,0,1-4.27,2.25c-4,1.27-8.37.43-12.16,2.59-.24.13-.85-.39-1.29-.61-1.13-1.5-1.06-3.25-1-5,1.71.29,2.9-1.43,4.73-1.05,2.55.53,4.75-.54,6.94-1.87,5.13-3.1,10.86-5,16.18-7.81,5-2.67,11.12-3.35,17-3.3a13.22,13.22,0,0,1,5.25.94c2,.84,3.63-1.4,5.7-.95,1.1.24,2.21.23,3.36.53,3,.79,5.69,2.45,8.55,3.3a34.08,34.08,0,0,1,15.06,9.48A11.09,11.09,0,0,1,955,369.87a9,9,0,0,0-.4,6.55c.94,3.65,2,7.22.68,11.43-1.25,3.88,0,8.47-1.26,12.65a2.76,2.76,0,0,0,0,1.48,52.21,52.21,0,0,1,2,17c-.1,3.82,0,7.65,0,11.48a4.94,4.94,0,0,0,2.54,4.85c1.21.7,2.57,1.64,2.47,3.45-.13,2.38,1.41,3.45,3.3,4.36,2.63,1.26,5.19,2.67,7.88,4.06,2.05-1.81,2.88-4.58,5.27-5.87,2.58,1.33,5.52,1.82,8,3.07,3,1.45,4.89-.95,7.35-1a10.38,10.38,0,0,0,.18-1.42c1.73.72.77,2.33,1.12,3.5,2.6,8.69,5.21,17.38,7.64,26.12.73,2.65.86,5.48,2.1,8,1.34,2.68,1.34,5.67,2,8.49s-.06,3.34-3,3.93C1002.14,492.13,1001.25,491.93,1001,493.05Z" transform="translate(-725.89 -210.38)"/><path class="cls-2" d="M945,497.89c-6.81,0-13.68.59-20.41-.14a192.25,192.25,0,0,0-21.31-.65c-5,0-9.74-1.46-14.5-2.76-8.23-2.25-16.44-4.5-25-5.53a76,76,0,0,1-16.75-3.87c1.08-3.6,2.12-7.21,4.94-9.94v2.71c3.13.24,5.61,2.22,8.76,2.33A75.13,75.13,0,0,1,874,482c1.64,1,3.18,1.64,4.77-.23,1.42-1.67,3.38-2.3,5.49-2.95s4.31-1.31,6.41-2.13c3-1.19,4-3.73,2.81-6.7-.43-1.05-1.27-2-1.4-3.09-.35-2.84-2-4.16-4.57-4.95s-3.47-2.75-2-4.81a14.37,14.37,0,0,0,3.06-7.92c.27-4.41,3.29-8.49,2.47-13.25,0-.14.1-.31.16-.46,2.28-5.82-.21-11.82.65-17.74.28-2-2.49-2.73-3.72-4.26a9.57,9.57,0,0,0,3.2-2.3,3.19,3.19,0,0,1,2.06-1.24c6.15-.7,12.28-2.1,18.46-.06a4,4,0,0,0,3.34-.47c2.08-1.22,3.8-.29,5.17,1.42a51.06,51.06,0,0,0,3.3,4.24A21.17,21.17,0,0,1,929.89,429c.41,7,.45,14.07-1.8,20.95-1.37,4.2-.85,7.17,1.07,11.61.26.59.94,1.36.76,1.72-1.44,3-.42,6.21-1.17,9.19-.34,1.3-.88,2.93-2.47,3.52-2.59,1-3.55,3.11-4.4,5.71,5.51,3.51,12.58,2.15,17.84,6-2.29,3.07-6.5-.52-8.52,2.85a8.15,8.15,0,0,1,3.74,3.24c.35,1.07-1.77,1.83-.12,3.25H945Z" transform="translate(-725.89 -210.38)"/><path class="cls-3" d="M994,216c8.55,1.66,17.1,3.35,25.66,5,12.39,2.36,22.64,8.17,29.55,18.94,3.77,5.87,5.32,12.68,6.73,19.45,2.29,10.94,2,22.05,2.25,33.14a169.22,169.22,0,0,0,2.45,23.07c1,6.16,1.95,12.35,2.45,18.61.54,6.88,1.8,13.69,2.68,20.54.39,3.1.57,6.22,1,9.33,2,12.82,3.17,25.78,7.18,38.21,1.16,3.59,2.3,7.19,3.56,10.74a11,11,0,0,1,.51,2.92c-.23.72.1,1.73-1.08,2-5.82-3.87-12.44-5.87-19-8-2.63-.84-5.54-.38-8-1.95,0-1,0-2,0-3,.14-4.25,3-6.06,7-4.46.76.3,1.43.8,2.19,1.09,3.12,1.19,4.58.14,4.84-3.2a36.31,36.31,0,0,0-1.17-12.19c-.88-3.29-1.07-6.84-2.32-9.84-3.1-7.43-4.42-15.23-5.35-23-.75-6.32-1.82-12.73-1.2-19.2a19.31,19.31,0,0,0-1.64-9.54c-2.08-4.89-3.16-10.12-4.25-15.32a8.07,8.07,0,0,1,.19-2.92c.7-4,1.71-7.93,1.71-12,0-3.77-.5-7.5-.81-11.24a34.06,34.06,0,0,0-5.39-15.93c-2.51-3.92-6.47-7-7.06-11.92-2.44-.52-4.52-.58-6,1.52-1.19,1.68-3,1.54-4.54,1.12-3.45-1-7.06-1.19-10.42-2.14-3.14-.88-6.86-.8-9.37-3.63-.41-.46-1.22.07-1.4.86-3.29-3.56-5.65-7.82-8.69-11.6-4.08-5.07-9.06-8.83-14.3-12.42a.9.9,0,0,0-1-.92L981,228a.84.84,0,0,0-.93-.91l-.09-.08c-.17-2,1.51-2.77,2.56-4,2.06-2.29,4.62-4.13,6.26-7Z" transform="translate(-725.89 -210.38)"/><path class="cls-4" d="M796.89,389c3.58,6.13,6.28,12.7,9.94,18.81,5.47,9.14,11.38,17.85,19.41,25a23.53,23.53,0,0,1,1.61,1.74c-.18.29-.23.5-.36.57A112.3,112.3,0,0,0,806,450.93c-2.6,2.37-3.79,5.34-4.87,8.41a2.89,2.89,0,0,0,1.67,3.73v1.43c-1.88-.07-3-1.2-4.15-2.33-5.16-5.12-10.21-10.34-15.85-15s-11.06-9.88-16.84-14.51c-7-5.61-13-12.15-19-18.73.3-1-.38-2.14,1-3,5.7-3.39,11.54-6.38,18-8,0,.49.09,1.11-.16,1.47-1.53,2.16-.86,3.77.71,5.69a56.74,56.74,0,0,0,5.46,6.33,18.36,18.36,0,0,1,4.2,6,47.3,47.3,0,0,0,11.22,15.34,59,59,0,0,0,9.19,6.33c2.71,1.61,4.38,1.24,6.58-.88,1.92-1.84,3.76-3.77,5.66-5.63.74-.73,1.45-1.51,1.08-2.59-.82-2.43-1.28-5.18-2.74-7.16-4.25-5.73-8.67-11.28-14.86-15.31-4.57-3-7.16-8-10.33-12.4.11-3.51-2.34-4.93-5-6.16,2.94-4.72,7.82-7,12.22-9.95,1.92-1.29,3.18-1,4.79-.09h0c0,.83-.3,1.84,1.07,1.91l0,0a.84.84,0,0,0,.79,1.08l.07.09C796,387.85,795.77,388.74,796.89,389Z" transform="translate(-725.89 -210.38)"/><path class="cls-5" d="M847.07,299.09c-5.11,5.67-10.64,11-15.55,16.81-7.28,8.66-15.57,16.38-23.25,24.66-6.21,6.7-12.54,13.26-19.21,19.5-2.39.94-3.45,3.44-5.54,4.69-1.79-.74-3.34-2.13-5.46-1.77l0,0c-.6-1.28-2.09-1.2-3-2-.67-1.64-3-1.07-3.66-2.67a3.57,3.57,0,0,1,.93-.29c6.64-.22,6.66-.43,9-6.6,3.58-9.33,9-17.28,17.89-22.45a15.58,15.58,0,0,0,3-2.61c4.07-4.09,8.12-8.19,11.82-12.65,2-2.4,4.12-4.7,5.89-7.26,2.48-3.59,4.93-7.23,7.14-11s5.79-6.64,8.44-10.19c2.85-3.81,6.35-7.4,12-6.24,1.31.27,1.34-1.37,2.56-1.78,0,3.84,0,7.31,0,10.79,0,.84-.12,1.68,1,2,0,1.68.06,3.35.1,5l0,.06a.94.94,0,0,0-1,.93h0C848.65,296.69,847.42,297.48,847.07,299.09Z" transform="translate(-725.89 -210.38)"/><path class="cls-6" d="M1089.06,555.89c-4.63-2-9.58-2.73-14.44-3.82a12,12,0,0,0-5.8.38c-1.9.51-4,1.44-5.88-.39l.13-.14c2,.24,3.74-.12,5-1.9h10.22c-.67-2.13.59-3.91-1-5.22-1.83-1.5-2-3.46-2.4-5.61-.76-3.63-1.45-7.25-2.08-10.9-.5-2.88-.24-5.6-.45-8.38-.22-2.95-.58-5.85.11-8.75a2.72,2.72,0,0,0,0-1.27c-1.21-6.53-1.51-13.19-2.31-19.77-.7-5.8-3-11.24-3.19-17.09a2.72,2.72,0,0,0-.72-1.25c-2.73-3.48-3.09-8-5.26-11.75l1,0a1,1,0,0,0,1,.92,25.32,25.32,0,0,1,6.8,2.37c5.32,2.39,10,5.9,15.17,8.6-.39,4.47,1.22,8.78,1,13.26-.49,10.75,1.47,21.43,1.08,32.19a4.34,4.34,0,0,0,.06,1.49c1.56,4.57,1.12,9.41,1.65,14.1.75,6.67,2.2,13.23,2.78,19.91C1091.75,555.28,1091.12,555.91,1089.06,555.89Z" transform="translate(-725.89 -210.38)"/><path class="cls-7" d="M727.93,366.05c.28-4.24,2.16-8,4.31-11.4,4.1-6.53,7.62-13.45,12.65-19.39,3.94-4.65,7.69-9.45,11.52-14.18,7-8.61,14.63-16.61,21.87-25,9.8-11.32,19.89-22.44,27.54-35.43a152.55,152.55,0,0,1,12.28-17.81,141.93,141.93,0,0,1,15.38-15.64c.31-.29.94-.21,1.42-.31A3,3,0,0,0,837,229c-1.29,1.45-.64,3.48-1.54,5.05-2.43,4.21-4.53,8.64-9,11.25a11.74,11.74,0,0,0-3.9,3.81c-2.45,3.94-5.69,7.17-8.65,10.67-3.45,4.07-7.39,7.86-9.35,13.07a38.55,38.55,0,0,1-1.43,4.11c-4.12,8.12-10,14.88-16.09,21.5-3.46,3.76-7.88,6.7-11.11,10.51-3.82,4.5-8.55,8.19-11.75,13.26a32,32,0,0,1-5.08,6c-7,6.52-12.32,14.23-17.76,21.93-2.09,3-1.77,5.84-.28,8.74,1,1.85,6.41,3.73,8.65,2.74,1.83-.81,3.57-.39,5.34-.59-8,5.67-17.19,8.16-27.08,10Z" transform="translate(-725.89 -210.38)"/><path class="cls-8" d="M880,215c.08-.15.15-.43.23-.43,5.53-.27,10.37-3.22,15.54-4.14,1.2.78,1.17,1.75,1.23,2.78a15.06,15.06,0,0,0,9.47,13.34c6.7,2.86,13.87,5,21.44,4.48a6.68,6.68,0,0,1,1,0c9,.47,17.78-.08,26.12-3.87a5.65,5.65,0,0,1,2-.14c-1,3.05-3,4.55-6.34,5.15-5.38,1-10.72,2.21-16.16,2.85-1.43.17-1.47,1-1.49,2a62.22,62.22,0,0,1-33-8.14l-2.72,3.68c.67,1,2.49-.27,2.77,1.44-1.79-.26-3,.57-4.33,1.77-3.61,3.34-6.54,7.39-10.71,10.14,0-.47-.09-.94-.12-1.38-.87-.6-1.15.51-1.75.48a14.51,14.51,0,0,0-12.69,6.09,5.32,5.32,0,0,1-1.06,1.06c-3.29,2.42-4.78,6.21-7.11,9.36-.47.65-.39,1.57.75,2.76,1.75-3.27,3.79-.11,5.93-.31-4.68,4.76-8,10.42-10.7,16.44L857,283c-1.57.43-1.14,3.26-3.5,2.83-1.63-2.11.94-3.81.64-6-.54-3.89.76-7.89-.13-11.85a49.83,49.83,0,0,1,11.41-20.77c2.51-2.64,4.27-6,7.18-8.13,3.8-2.76,6.8-6.28,10.22-9.38a20.41,20.41,0,0,1,3.39-2.84c2.3-1.31,2.21-1.77.92-4.4-1.2-2.45-3.33-4.43-3.44-7.52Z" transform="translate(-725.89 -210.38)"/><path class="cls-9" d="M933,237c0-1,.06-1.87,1.49-2,5.44-.64,10.78-1.89,16.16-2.85,3.36-.6,5.3-2.1,6.34-5.15h0c.83,0,1.77.29,2-.91a2.52,2.52,0,0,1,.86-.12c.86,0,1.88.39,2.1-1h0c.87,0,1.94.31,1.94-1.15,2-2.88,5.46-4.15,7.71-6.8,1.55-1.84,3.89-3.09,3.53-5.86a11.47,11.47,0,0,1,5.27.48,73.5,73.5,0,0,0,13,3.62c.22,0,.38.48.56.73h-5.27c-1.64,2.92-4.2,4.76-6.26,7-1,1.18-2.73,2-2.56,4a6.08,6.08,0,0,0-4.17,1.07c-2.11,1.16-2.4,2.61-.81,4.34a33.19,33.19,0,0,0,4.66,4.45,92.65,92.65,0,0,1,9.45,7.68c3.86,3.78,7.06,8.11,10.5,12.24,2.05,2.45,3.3,5.74,6.43,7.25,1.76,5.6,5.17,10.56,5.56,16.75.19,3,.33,5.93.28,8.89-2-.08-1.31-2.41-2.82-2.65-3.41-8.56-7.06-17.05-13.53-23.78-2.58-2.69-4.09-6.35-7.52-8.22a.91.91,0,0,0-1-1l0,0a.92.92,0,0,0-1-1l0,0a.94.94,0,0,0-1-1h0c-.24-1.27-1.41-1.8-2.14-2.66-3.55-4.2-8.43-7-12-11.1-2.75-3.13-5.79-3.79-9.54-1.94-7,3.44-14.54,4.55-22.27,4.67.62-2.08,2.78-.17,3.71-1.44C939.8,237,939.8,237,936,237h-3Z" transform="translate(-725.89 -210.38)"/><path class="cls-10" d="M1004.1,373c.08,5-1.07,9.78-1.91,14.63a12.34,12.34,0,0,0-.14,1.48c-.17,3.62-1,7.36-.68,10.8.49,5.39.4,10.82,1.12,16.22,2,14.75,8.43,28.11,12.6,42.17,2.14,7.19,4,14.46,6.93,21.41a10.27,10.27,0,0,1,.87,2.81c.23,2.59-.15,5.07-3,6.05-1.74.59-2.75,2.49-4.78,2.44-.92-.26-2,.3-2.83-.54a3.79,3.79,0,0,0,.42-4.15c-1-1.82-.13-4.43-2.35-5.73,1.22-4.13-1-7.77-1.86-11.54a231.19,231.19,0,0,0-6.3-23.27c-.84-2.44-1.41-4.87-3.11-6.87,0-.65,0-1.31,0-2a8.77,8.77,0,0,0-.15-2.42A65.39,65.39,0,0,1,995,416.93c0-.33-.63-.63-1-.94,0-2.82,0-5.64,0-8.47s-.36-6,.08-8.95c1-6.87,2.68-13.64,2.95-20.63,0-.32.63-.63,1-.94a1.26,1.26,0,0,1,1,1.41c0,2,0,3.94,0,5.91,0,1.3.65,1.89,1.68,2.52a59.66,59.66,0,0,0,2.32-12.51A1.2,1.2,0,0,1,1004.1,373Z" transform="translate(-725.89 -210.38)"/><path class="cls-11" d="M746.94,414c6,6.58,12,13.12,19,18.73,5.78,4.63,11.1,9.82,16.84,14.51s10.69,9.85,15.85,15c1.14,1.13,2.27,2.26,4.15,2.33v-1.43c2.07.5,2.42,1.81,1.94,4a16.77,16.77,0,0,1-7.65-4.4c-1.7-1.83-3.53-3.54-5.29-5.32a148,148,0,0,0-14.88-13c-2.46-1.91-4.6-4.19-7.06-6.16-9.6-7.7-18-16.67-26.56-25.53a38.43,38.43,0,0,1-7.56-10.74c-1.36-3.09-3.21-5.95-4.32-9.12a24.83,24.83,0,0,0-3.27-6.48c-1.51-2.09-1.81-4.87-2.08-7.39a77.26,77.26,0,0,1-.06-10c0-.33.62-.65,1-1,0,3-.21,6,.09,9,.37,3.62.49,7.47,3.71,10.06,12-5.72,23.63-11.41,34.25-19,1.94,0,3.8-.15,5-2h0c.82,0,1.78.26,2-1l1,0c1.25.24,2.63-.42,3.73.47.64,1.11-.28,2.58.72,3.35,3.08,2.36.81,4.22-.42,6.2a7.7,7.7,0,0,0,0,1h0c-.49.06-1.16-.07-1.43.2-3.64,3.56-7.68,6.72-10.57,11a7,7,0,0,1-4.68,3C756,391.2,751.53,392,748,395c-3.76,1.84-7.58,3.59-10.88,6.39A70.1,70.1,0,0,0,746.94,414Z" transform="translate(-725.89 -210.38)"/><path class="cls-12" d="M1059,538c-1.7-6.35-3.53-12.67-5.09-19a288.41,288.41,0,0,0-9-28.65c-4-11.31-7.46-22.81-10.94-34.29.51-2.14-1.33-3.87-1.06-6,.36-.94.89-1.31,1.87-.73a53,53,0,0,0,12.21,4.78c-3.5,2.6-3.94,4.83-1.7,8.55.17.28.46.49.63.77a33.16,33.16,0,0,1,3.84,7.7,56.4,56.4,0,0,1,2.36,13.86c.24,6.38-1.81,12.78.79,19.18,2.21,5.46,2.3,11.72,6.78,16.37,1.18,1.23,2.52,3.21,2.25,5.26s.62,3.59,1.19,5.19c1.56,4.42,1,8.66-.13,13-.31,1.12-1.14,1-1.94,1C1060.69,542.57,1060.49,540.11,1059,538Z" transform="translate(-725.89 -210.38)"/><path class="cls-13" d="M831,475c1.13-3.3,3.38-6,5-9q8-14.73,15.88-29.48c2.4-4.49,4.77-9,7.15-13.48,1.26-.21,1-1.18,1-2h0c.4-.23.83-.43,1.21-.7,3.09-2.18,4.43-1.56,4.79,2.25a14.22,14.22,0,0,1,0,1.46c.13,2.27-2.14,3.72-2,6-1.24.22-1,1.19-1,2h0c-2.15,2.64-3.83,5.48-4,9h0c-3.29,4.48-4.69,9.72-6,15h0c-.27.16-.68.25-.8.48-1.74,3.46-3.91,6.79-5,10.44s-4.17,6.43-5.35,10.25c-1,3.33-3.63,5.85-7.86,4.88h0c-.86-2-2.64-.66-3.93-1.07h0L829,479h0c1.33-.18,1-1.16,1-2h0C831.25,476.78,831,475.8,831,475Z" transform="translate(-725.89 -210.38)"/><path class="cls-14" d="M765,368c-10.62,7.6-22.3,13.29-34.25,19-3.22-2.59-3.34-6.44-3.71-10.06-.3-3-.08-6-.09-9,.17-.71-.21-1.69.94-1.94v5c9.89-1.87,19.05-4.36,27.08-10h0c4.89-1.55,9.94-.84,14.92-1.09l1.17.11c0,.63.21.93.87.78l2.07.24c.63,2.09,2.27,2,4,1.9l0,0a4.1,4.1,0,0,0,0,1c-1.65.5-3.71-1-5,1l-1,0c-.83,0-1.79-.27-2,1h0C768,365.94,766.18,366.1,765,368Z" transform="translate(-725.89 -210.38)"/><path class="cls-15" d="M866,424a14.22,14.22,0,0,0,0-1.46c-.36-3.81-1.7-4.43-4.79-2.25-.38.27-.81.47-1.21.7,0-.33-.11-.78.06-1,4.4-5,5-11.15,5-17.45,0-4.82.33-9.68-.14-14.46-.63-6.48-1.22-13-2.46-19.41C861.7,364.87,860.6,361,861,357c1.47,2,1.6,4.32,2.08,6.61s.45,4.57,2.72,7.23c.16-3.51.28-6.05.44-9.72,2.31,3.91,4,6.88,5.8,9.85h0c-.25,3.95.91,7.75,1.41,11.59.35,2.63.8,5,0,7.63a7.39,7.39,0,0,0,.55,6.59A8.25,8.25,0,0,1,875,402c0,2.06,0,4.11,0,6.16,0,.82,0,1.58-1,1.84v-8.55c-2-.75-2.84-.5-3,1.41-.69,7-3.61,13.6-4.19,20.65C866.76,423.69,866.28,423.84,866,424Z" transform="translate(-725.89 -210.38)"/><path class="cls-16" d="M1089.06,555.89c2.06,0,2.69-.61,2.48-3-.58-6.68-2-13.24-2.78-19.91-.53-4.69-.09-9.53-1.65-14.1a4.34,4.34,0,0,1-.06-1.49c.39-10.76-1.57-21.44-1.08-32.19.21-4.48-1.4-8.79-1-13.26.61-4.65-1-9.16-.92-13.77.07-2.85-.08-5.15-3.8-5.66-1.83-.25-3.51-1.66-5.26-2.54-.21-1.23-1.17-.95-2-1h0c-.21-1.24-1.17-1-2-1h0c-.22-1.24-1.18-1-2-1h0v-1a6.68,6.68,0,0,0,.81-8.61,17.89,17.89,0,0,1-1.79-3.9c-1.22-3.85-1.26-3.84-4-5.53l3,0c4.52,1.91,8.57,5,13.8,6.19.59-4.52-1.58-8.28-.8-12.19.27.16.78.32.78.48-.06,3.79,1.72,7.38,1.24,11.21-.46,3.67.86,7.15,1.28,10.71.82,7.11,2.4,14.08,2.91,21.3.57,8.1.17,16.24,1,24.25.63,5.63.6,11.2.72,16.79.16,7.24,1,14.38,1.9,21.55.47,3.9.22,7.87,1.11,11.76.69,3,.93,6.12,1.68,9.1a17.43,17.43,0,0,1,.26,5.42C1092.77,556.92,1091.3,557.33,1089.06,555.89Z" transform="translate(-725.89 -210.38)"/><path class="cls-17" d="M857,283l1.21-2.61c2.74-6,6-11.68,10.7-16.44l.07-.06q1,0,.93-.93l.07-.07c.65,0,1-.28.92-.93l10.22-12a.88.88,0,0,0,.88-1l.06-.06a.9.9,0,0,0,.91-1l0,0,.49,0H884c.35,1.83-1.19,2.56-2.11,3.66-1.27,1.5-3.2,2.47-3.86,4.43-.88,2.64-2.86,4.37-4.77,6.15a39.41,39.41,0,0,0-8.13,10.33c-2.19,4.21-4,8.6-2.53,13.81a30.94,30.94,0,0,1,.17,14.2A79,79,0,0,0,861,313a24.7,24.7,0,0,0-1,22c.2,1,1.32,1.79,1,3a3.1,3.1,0,0,1-2-1.95,44.14,44.14,0,0,1-4-15.67c-.13-1.46,1.13-3.31-1-4.36l0-2c0-5.3,0-10.61.06-15.91a41.51,41.51,0,0,1,.45-4.33C854.91,290.07,856.86,286.76,857,283Z" transform="translate(-725.89 -210.38)"/><path class="cls-18" d="M1080,422c-.78,3.91,1.39,7.67.8,12.19-5.23-1.22-9.28-4.28-13.8-6.19-.73-1.79-3.26-1.29-4.1-3.41,1.81-2.69.86-5.61.2-8.66-.45-2.07-1.44-3.39-3.25-3.88-4-1.1-8-2.83-12.49-1.78-.9,3.16-1.82,6.37-2.78,9.75H1040c-3.6.61-7-.93-10.53-1.06-1.75-.06-2.54-1.21-2.48-2.94,2.58,2.92,6.48,1.3,9.31,2.85,2.6-3.3,2.3-7.65,4.31-10.89H1047l3,0c2.42,1.57,5.33,1.11,8,1.95,6.61,2.11,13.23,4.11,19,8,1.18-.25.85-1.26,1.08-2A1.13,1.13,0,0,1,1079,417c.34,1.68-1,3.67,1,5Z" transform="translate(-725.89 -210.38)"/><path class="cls-19" d="M1004.1,373a1.2,1.2,0,0,0-1.12,1.29,59.66,59.66,0,0,1-2.32,12.51c-1-.63-1.72-1.22-1.68-2.52.07-2,0-3.94,0-5.91a1.26,1.26,0,0,0-1-1.41c-.27-6.25,1.31-12.3,2.27-18.39.42-2.64.68-5.49,1.86-8,2.3-4.82,3.71-9.95,5.5-14.94,3-8.31,5-16.82,4.4-25.77-.19-3,0-6,0-9,0-.85-.08-1.67,1-2q0,13,.07,26c-.21,1.42.13,2.85-.63,4.29a4.14,4.14,0,0,0,.15,4.62c2.44,3,2.59,6.51,2.42,10.1a5.46,5.46,0,0,1-.9-.07,21.74,21.74,0,0,0-1.47-7.73c-1.27.52-1.36,1.63-1.58,2.79-2.14,11.27-4.34,22.52-6.53,33.77C1004.48,372.87,1004.24,372.94,1004.1,373Z" transform="translate(-725.89 -210.38)"/><path class="cls-20" d="M1014.08,343.93a5.46,5.46,0,0,0,.9.07c.13,1.72,0,3.48,1,5,0,7.6,2.55,14.78,3.68,22.19,1,6.28,2.32,12.5,3.28,18.77.61,4,1.16,8.07,2.08,12a50.32,50.32,0,0,0,2,14c-.06,1.73.73,2.88,2.48,2.94,3.54.13,6.93,1.67,10.53,1.06.48,1.56,1.78.83,2.75,1s1.94-.32,2.25,1c-1.8,0-3.6,0-5.4,0a2.23,2.23,0,0,0-2.49,1.89c.06,3.54-2.11,6.87-.78,10.65,1.09,1.44,3.48.86,4.74,2.41l-1.09.1c-3.7-.14-6.84-2.3-10.4-2.91-1,1.21-.38,2.54-.48,3.79l-.22.19a1.68,1.68,0,0,1-.89-1.62c.14-6.9-1.38-13.55-2.77-20.26a70.22,70.22,0,0,1-1.12-8.72c-.52-6.52-2.33-12.85-2.89-19.3-.71-8.33-2.88-16.35-4.37-24.51-.89-4.93-1.44-9.95-2.71-14.83C1013.72,347.33,1014.07,345.58,1014.08,343.93Z" transform="translate(-725.89 -210.38)"/><path class="cls-21" d="M999.05,439c1.7,2,2.27,4.43,3.11,6.87a231.19,231.19,0,0,1,6.3,23.27c.86,3.77,3.08,7.41,1.86,11.54,2.22,1.3,1.3,3.91,2.35,5.73a3.79,3.79,0,0,1-.42,4.15c.82.84,1.91.28,2.83.54-.19.25-.39.72-.57.71-4.56-.21-9,1.19-13.48,1.29.22-1.12,1.11-.92,1.91-1.09,2.9-.59,3.61-1.21,3-3.93s-.67-5.81-2-8.49c-1.24-2.5-1.37-5.33-2.1-8-2.43-8.74-5-17.43-7.64-26.12-.35-1.17.61-2.78-1.12-3.5,0-.65-.07-1.3-.11-1.95l.06-2c2.48,3.63,2.67,8,4,12.05,1.9,5.78,3.48,11.67,5.3,17.48a10.07,10.07,0,0,0,1.75,2.89,1.89,1.89,0,0,0,2.28.44c.93-.39.83-1.4.62-2.17q-3.42-12.75-6.94-25.48c-.39-1.39-1.26-2.66-1-4.21Z" transform="translate(-725.89 -210.38)"/><path class="cls-17" d="M880,215h3.72c.11,3.09,2.24,5.07,3.44,7.52,1.29,2.63,1.38,3.09-.92,4.4a20.41,20.41,0,0,0-3.39,2.84c-3.42,3.1-6.42,6.62-10.22,9.38-2.91,2.11-4.67,5.49-7.18,8.13A49.83,49.83,0,0,0,854,268c-.33,0-.66,0-1,0,0-.66,0-1.33,0-2-.32-1.5,1.38-2.49,1-4,2.24-7.31,6.89-13.28,11.68-18.88,4.57-5.35,9.36-10.72,15.36-14.71a6.61,6.61,0,0,0,2.32-3.12c1.13-2.77-1.05-7.28-3.85-6.9-1.93.26-3.78,1.11-5.58,0-2.27-1.37-4.06.8-6.12.6-5.95-.58-11.64,1.24-17.4,2.12-5.35.81-10.28,3-13.4,7.88a3,3,0,0,1-2.1-2.09l0,0a.91.91,0,0,0,1.07-1h0c.85,0,1.9.29,2-1.12,4.22-3.39,9.33-4.59,14.45-5.51,5.81-1,11.7-1.64,17.56-2.43,1.36-.21,3,1,4-.88a4.75,4.75,0,0,1,1-.1c1.35-.25,3,.94,4-.9A5.21,5.21,0,0,1,880,215Z" transform="translate(-725.89 -210.38)"/><path class="cls-22" d="M794,384c-1.61-.88-2.87-1.2-4.79.09C784.83,387,780,389.3,777,394l-2,.91c-.1-2.75,2.83-3.41,3.59-5.07-1.86-3.14-5-5-6.33-8.39,1.31-2.05,3.7-3.19,4.73-5.49h0a1,1,0,0,0,1-.91c.57-.33,1.12-.7,1.7-1,5.61-2.88,5.61-2.88,10.25.95h0c0,.82-.22,1.78,1,2C791.9,379.37,793.75,381.34,794,384Z" transform="translate(-725.89 -210.38)"/><path class="cls-23" d="M854,316c2.09,1.05.83,2.9,1,4.36a44.14,44.14,0,0,0,4,15.67,3.1,3.1,0,0,0,2,1.95h.06a.9.9,0,0,0,.93,1l.06,1c0,.8-.29,1.76,1,2a90,90,0,0,0,7,16c0,1.74-.1,3.49,1,5-.51,2.77,1.5,5.22,1,8-1.75-3-3.49-5.94-5.8-9.85-.16,3.67-.28,6.21-.44,9.72-2.27-2.66-2.27-5.06-2.72-7.23S862.43,359,861,357h0c-.42-1.66,1.1-3.71-1-5-1.76-2.24-1.14-5.1-1.56-7.58-1-5.77-2.73-11.36-3.63-17.15A88.87,88.87,0,0,1,854,316Z" transform="translate(-725.89 -210.38)"/><path class="cls-24" d="M834,482.05c4.23,1,6.83-1.55,7.86-4.88,1.18-3.82,4.17-6.45,5.35-10.25s3.29-7,5-10.44c.12-.23.53-.32.8-.48a7.16,7.16,0,0,1-.65,3.33c-1.28,2.59-2.23,5.34-3.31,8a1.85,1.85,0,0,0,2.73.27,15.05,15.05,0,0,0,3.47-4.11A117.92,117.92,0,0,0,863,445.64c.46-1.35.6-2.84,2-3.64a9.45,9.45,0,0,1-.19,2.46A171.93,171.93,0,0,1,856,466.05c-1.75.5-.77,1.93-1,2.95h0c-1.22.22-1,1.17-1,2h0c-1.24.21-1,1.17-1,2h0c-1.24.22-1,1.17-1,2h0c-2.82,2.73-3.86,6.34-4.94,9.94-4-.76-7.89-2.32-12.1-2C834.65,482.94,834.3,482.36,834,482.05Z" transform="translate(-725.89 -210.38)"/><path class="cls-23" d="M853,268c.32,0,.65,0,1,0,.89,4-.41,8,.13,11.85.3,2.19-2.27,3.89-.64,6,2.36.43,1.93-2.4,3.5-2.83-.13,3.75-2.08,7.06-2.52,10.79a41.51,41.51,0,0,0-.45,4.33c-.07,5.3,0,10.61-.06,15.91-1.29-.51-.84-1.64-.85-2.56-.08-3.81-.12-7.63-.14-11.45,0-2-.78-3.16-3-3l0-1h0a1,1,0,0,0,1-.93l0-.06c1.36-.39.93-1.52.93-2.42,0-6.52,0-13.05,0-19.57l.09-2a.88.88,0,0,0,.88-1Z" transform="translate(-725.89 -210.38)"/><path class="cls-25" d="M790,375c-4.64-3.83-4.64-3.83-10.25-.95-.58.29-1.13.66-1.7,1l-1-.05c1.23-2,3.5-3.84.42-6.2-1-.77-.08-2.24-.72-3.35-1.1-.89-2.48-.23-3.73-.47,1.34-2,3.4-.52,5-1,1.41-.22,2.55.65,3.51,1.32,1.73,1.21,3,.47,4.38-.36a3.3,3.3,0,0,1-1,2.94c1.09,2,2.75,3.13,4.06,4.56A2.85,2.85,0,0,1,790,375Z" transform="translate(-725.89 -210.38)"/><path class="cls-26" d="M785.92,364.93c-1.39.83-2.65,1.57-4.38.36-1-.67-2.1-1.54-3.51-1.32a4.1,4.1,0,0,1,0-1c2.12-.36,3.67,1,5.46,1.77,2.09-1.25,3.15-3.75,5.54-4.69.24,1.82-1.65,2.41-2.18,3.79a1.08,1.08,0,0,0-1,1.08Z" transform="translate(-725.89 -210.38)"/><path class="cls-27" d="M1059,538c1.47,2.1,1.67,4.56,2,7-.4,1.24.69,2,1,3,0,1,.07,2,.11,3l-.23.1C1059.62,547,1059.25,542.52,1059,538Z" transform="translate(-725.89 -210.38)"/><path class="cls-20" d="M1030.85,446.13c-1.71-2.41-1.93-5.19-2-8l.22-.19a16.86,16.86,0,0,1,2,8Z" transform="translate(-725.89 -210.38)"/><path class="cls-20" d="M1032.91,450.06c-.27,2.09,1.57,3.82,1.06,6-2.23-1.42-1.91-3.75-2.11-5.89l.22-.21A8,8,0,0,0,1032.91,450.06Z" transform="translate(-725.89 -210.38)"/><path class="cls-17" d="M850,296l0,1a3.13,3.13,0,0,1-2.95,2C847.42,297.48,848.65,296.69,850,296Z" transform="translate(-725.89 -210.38)"/><path class="cls-28" d="M945,497.89V497c1.65.38,3.56-.81,5,.87Z" transform="translate(-725.89 -210.38)"/><path class="cls-16" d="M1080,422c-1.94-1.36-.65-3.35-1-5C1081,418.33,1079.62,420.34,1080,422Z" transform="translate(-725.89 -210.38)"/><path class="cls-15" d="M860,352c2.11,1.32.59,3.37,1,5C859.18,355.65,860.32,353.68,860,352Z" transform="translate(-725.89 -210.38)"/><path class="cls-8" d="M874,216.05c-1,1.87-2.66.67-4,.88C871,215.22,872.64,216.29,874,216.05Z" transform="translate(-725.89 -210.38)"/><path class="cls-20" d="M1031.86,450.13c-1.59-1-.58-2.69-1-4l.22-.18c1.79.95.56,2.67,1,4Z" transform="translate(-725.89 -210.38)"/><path class="cls-8" d="M879,215.05c-1,1.84-2.67.65-4,.9C876,214.15,877.65,215.32,879,215.05Z" transform="translate(-725.89 -210.38)"/><path class="cls-24" d="M830,481c1.29.41,3.07-1,3.93,1.07C832.64,481.71,830.92,482.89,830,481Z" transform="translate(-725.89 -210.38)"/><path class="cls-24" d="M829,479l1.06,2c-.65,0-1.4.13-1.75-.54A1,1,0,0,1,829,479Z" transform="translate(-725.89 -210.38)"/><path class="cls-8" d="M963.91,223.82c0,1.46-1.07,1.14-1.94,1.15C962.23,223.93,963.15,224,963.91,223.82Z" transform="translate(-725.89 -210.38)"/><path class="cls-7" d="M838,224.87c-.08,1.41-1.13,1.09-2,1.12C836.21,224.85,837.14,225,838,224.87Z" transform="translate(-725.89 -210.38)"/><path class="cls-8" d="M962,225c-.22,1.36-1.24,1-2.1,1C960.25,224.9,961.13,225,962,225Z" transform="translate(-725.89 -210.38)"/><path class="cls-8" d="M959,226.06c-.28,1.2-1.22.93-2,.91C957.29,225.84,958.19,226,959,226.06Z" transform="translate(-725.89 -210.38)"/><path class="cls-25" d="M791,377c-1.25-.2-1-1.16-1-2C791.25,375.19,791,376.16,791,377Z" transform="translate(-725.89 -210.38)"/><path class="cls-22" d="M795.09,385.89c-1.37-.07-1.06-1.08-1.07-1.91C795.11,384.21,795.05,385.08,795.09,385.89Z" transform="translate(-725.89 -210.38)"/><path class="cls-22" d="M796.89,389c-1.12-.21-.87-1.1-.92-1.85C797.2,387.27,797,388.15,796.89,389Z" transform="translate(-725.89 -210.38)"/><path class="cls-15" d="M860,421c0,.83.27,1.8-1,2C859,422.16,858.82,421.25,860,421Z" transform="translate(-725.89 -210.38)"/><path class="cls-24" d="M831,475c0,.85.29,1.83-1,2C830,476.12,829.86,475.24,831,475Z" transform="translate(-725.89 -210.38)"/><path class="cls-24" d="M829.94,477c0,.85.34,1.83-1,2C829,478.13,828.86,477.25,829.94,477Z" transform="translate(-725.89 -210.38)"/><path class="cls-7" d="M836,226a.91.91,0,0,1-1.07,1A1,1,0,0,1,836,226Z" transform="translate(-725.89 -210.38)"/><path class="cls-25" d="M785.93,364.93a1.08,1.08,0,0,1,1-1.08C787,364.57,786.67,364.94,785.93,364.93Z" transform="translate(-725.89 -210.38)"/><path class="cls-22" d="M795.9,387a.84.84,0,0,1-.79-1.08A.86.86,0,0,1,795.9,387Z" transform="translate(-725.89 -210.38)"/><path class="cls-6" d="M1062.94,552.06a1.05,1.05,0,0,1-1-1l.23-.1a1.15,1.15,0,0,1,.94,1Z" transform="translate(-725.89 -210.38)"/><path class="cls-28" d="M872,371c.51-2.77-1.5-5.22-1-8,.44.22,1,.74,1.29.61,3.79-2.16,8.2-1.32,12.16-2.59a9.49,9.49,0,0,0,4.27-2.25c3.77-3.9,8.82-5.26,13.77-6.76a56.93,56.93,0,0,1,20.92-1.92,23.38,23.38,0,0,1,17.2,9c1.47,1.86.78,3.79.28,5.41-1.43,4.6-3.95,8.87-4,13.87-2.7,2.74-2.08,6.68-3.52,9.88-.26.57-.53,1.64-.28,1.85,2.7,2.27,1.32,6,3.15,8.54a3,3,0,0,1,.73,1.76c-.4,4.42,1.68,8.36,3.3,12a44.43,44.43,0,0,1,3.13,10.93c.52,3.09.8,5.74-.76,8.4a7.07,7.07,0,0,0-.47,5.78c1.07,3.11.84,6.17.81,9.26a30.16,30.16,0,0,0,1.88,11c.6,1.58,1.86,3.53.22,5.45a2,2,0,0,0,0,1.92c2.21,3.14,3.54,7.25,7.53,8.61,3.47,1.18,6.25,3.34,9.23,5.23a31.67,31.67,0,0,0,8.75,4c1.56.42,3.19.83,4.26,2.53-2.77,3-6.63.42-9.66,1.82s-6.55,0-9.77.87a1.62,1.62,0,0,0,1.85,1.7c2.76-.3,5.47,1.08,8.38-.63,2-1.17,4.71-.57,6.59,1.88-3.3,1.91-6.49.6-9.55.82-1.94.15-3.9-.78-5.64-.37s-3.62,1.2-5.53,1.65S947.9,494.64,946,495c-1.14.23-.93,1.18-1,2H934.82c-1.65-1.42.47-2.18.12-3.25a8.15,8.15,0,0,0-3.74-3.24c2-3.37,6.23.22,8.52-2.85-5.26-3.86-12.33-2.5-17.84-6,.85-2.6,1.81-4.74,4.4-5.71,1.59-.59,2.13-2.22,2.47-3.52.75-3-.27-6.22,1.17-9.19.18-.36-.5-1.13-.76-1.72-1.92-4.44-2.44-7.41-1.07-11.61,2.25-6.88,2.21-13.94,1.8-20.95a21.17,21.17,0,0,0-6.24-13.85,51.06,51.06,0,0,1-3.3-4.24c-1.37-1.71-3.09-2.64-5.17-1.42a4,4,0,0,1-3.34.47c-6.18-2-12.31-.64-18.46.06a3.19,3.19,0,0,0-2.06,1.24,9.57,9.57,0,0,1-3.2,2.3c1.23,1.53,4,2.28,3.72,4.26-.86,5.92,1.63,11.92-.65,17.74-.06.15-.18.32-.16.46.82,4.76-2.2,8.84-2.47,13.25a14.37,14.37,0,0,1-3.06,7.92c-1.46,2.06-.6,4,2,4.81s4.22,2.11,4.57,4.95c.13,1.07,1,2,1.4,3.09,1.2,3,.18,5.51-2.81,6.7-2.1.82-4.28,1.47-6.41,2.13s-4.07,1.28-5.49,2.95c-1.59,1.87-3.13,1.25-4.77.23,2.86-3.52,4.74-7.28,4.08-12.08-.27-2-.38-3.57-2.62-4.12a6.38,6.38,0,0,1-1.74-.85c-2.09-1.3-2.31-2.59-.74-4.41a7.52,7.52,0,0,1,1.78-1.74,6,6,0,0,0,3.29-6,4.27,4.27,0,0,1,2.68-4.24c1.11-.52,1.77-1.55.64-2.81a1.71,1.71,0,0,1-.29-1.87c1.61-3.24,1-6.95,2.47-10.33,1.1-2.55.81-5.41-1.39-8.2-2.37-3-6.47-5.42-5.43-10-2.48-1.45-2.38,1.4-3.72,1.64,0-.67,0-1.34,0-2a4.88,4.88,0,0,0,.09-.93c1.6-.65.77-2,.89-3.08a4.7,4.7,0,0,0,0-1c1-.26,1-1,1-1.84,0-2.05,0-4.1,0-6.16,1.06-.29,1-1.11,1-1.95a117.29,117.29,0,0,0-.82-11.71,91,91,0,0,0-2.15-14.9c-.22-.88.41-2.07-1-2.44Z" transform="translate(-725.89 -210.38)"/><path class="cls-29" d="M862,340l-.06-1a1,1,0,0,0-.93-1H861c.36-1.22-.76-2-1-3h.49l.48,0a7.21,7.21,0,0,0,5.44-3c3.51-4.25,7.83-4.89,12.87-3.38a8.8,8.8,0,0,0,6.2-.36,32.08,32.08,0,0,1,12.37-2.11c5.88,0,11.92-1.95,17.68.82a.94.94,0,0,0,.5,0c5.53-1.06,10.51,1.87,15.92,2.28,5.74.43,11.24.88,17-.06a72.45,72.45,0,0,1,8.69-1.29c9.67-.41,17.07-4.69,21.58-13.53,2.14-4.2,4.5-8.28,6.74-12.42a6,6,0,0,1,3-3,4.34,4.34,0,0,1,1,.5c3.94,3.76,7.58,7.84,12,11.07,1.11.81,2,1.64,3.5,1.44s3,.21,3.5,2a19.39,19.39,0,0,1-1.58,9.94c-2.31,5.43-3.7,11.3-7.35,16.12-.16.21,0,.64,0,1h0c-1.26.19-1,1.16-1,2-1.19,1.07-.4,3.15-2,4,.76-3.05-1.27-4.9-3-6.67,2.27-6.07.74-11.91-.23-17.66a5.76,5.76,0,0,0-4.1-4.71c-5,4.44-9.16,9.77-14.22,14.21-2,1.76-4,3.68-6.51,4.25-3.11.69-4.9,3.12-7.34,4.64-2.14,1.34-3,3.53-1.68,6.32a63.41,63.41,0,0,0,4.15,8.23c2.54,4,4.49,7.94,2.22,13-1.31,2.9-.44,6.35,1.1,9a38.74,38.74,0,0,1,3.65,9.9c.47,1.83.92,3.85,3.34,4.69,1.16-1.64,2.62-2.86,3.83-4.47,2.56-3.38,4.79-7.77,10.28-6.68.86-1-.12-2.75,1.55-3a34,34,0,0,1-.17,6A84.85,84.85,0,0,0,988,401q0,9.48,0,19c0,1.57,0,3.13,0,4.7a1.19,1.19,0,0,0,1,1.3h0c.37,1.32-1,3.08,1,4a3.62,3.62,0,0,1,0,.93c0,.81-.34,1.78.89,2.06,0,.33.05.67.08,1,.26,1-.75,2.44,1,3a3.17,3.17,0,0,1,.06,1c0,.8-.31,1.76.9,2,0,.65.08,1.3.11,1.95a10.38,10.38,0,0,1-.18,1.42c-2.46,0-4.4,2.43-7.35,1-2.53-1.25-5.47-1.74-8-3.07-2.39,1.29-3.22,4.06-5.27,5.87-2.69-1.39-5.25-2.8-7.88-4.06-1.89-.91-3.43-2-3.3-4.36.1-1.81-1.26-2.75-2.47-3.45a4.94,4.94,0,0,1-2.54-4.85c0-3.83-.07-7.66,0-11.48a52.21,52.21,0,0,0-2-17,2.76,2.76,0,0,1,0-1.48c1.22-4.18,0-8.77,1.26-12.65,1.36-4.21.26-7.78-.68-11.43a9,9,0,0,1,.4-6.55,11.09,11.09,0,0,0-2.21-12.59,34.08,34.08,0,0,0-15.06-9.48c-2.86-.85-5.54-2.51-8.55-3.3-1.15-.3-2.26-.29-3.36-.53-2.07-.45-3.74,1.79-5.7.95a13.22,13.22,0,0,0-5.25-.94c-5.92-.05-12,.63-17,3.3-5.32,2.82-11.05,4.71-16.18,7.81-2.19,1.33-4.39,2.4-6.94,1.87-1.83-.38-3,1.34-4.73,1.05a90,90,0,0,1-7-16C863,341.18,863.25,340.23,862,340Z" transform="translate(-725.89 -210.38)"/><path class="cls-30" d="M873,417c1.34-.24,1.24-3.09,3.72-1.64-1,4.61,3.06,7,5.43,10,2.2,2.79,2.49,5.65,1.39,8.2-1.45,3.38-.86,7.09-2.47,10.33a1.71,1.71,0,0,0,.29,1.87c1.13,1.26.47,2.29-.64,2.81a4.27,4.27,0,0,0-2.68,4.24,6,6,0,0,1-3.29,6,7.52,7.52,0,0,0-1.78,1.74c-1.57,1.82-1.35,3.11.74,4.41a6.38,6.38,0,0,0,1.74.85c2.24.55,2.35,2.15,2.62,4.12.66,4.8-1.22,8.56-4.08,12.08a75.13,75.13,0,0,0-13.25-2c-3.15-.11-5.63-2.09-8.76-2.33V475h0c1.26-.2,1-1.17,1-2h0c1.25-.19,1-1.17,1-2h0c1.24-.21,1-1.18,1-2h0c1.72-.51.72-1.95,1-2.95a171.93,171.93,0,0,0,8.79-21.59A9.45,9.45,0,0,0,865,442a52.08,52.08,0,0,0,2.08-6.37c1.11-3.85,1.16-8,2.9-11.64,1.25-.15,1-1.15,1.07-1.94,1.15-.26.92-1.21,1-2,1.63-.59.72-2,1-3Z" transform="translate(-725.89 -210.38)"/><path class="cls-31" d="M1050,408l-3,0c-.63-1.77-2.16-.65-3.23-1-1.23-.4-2.92.95-3.74-1,.91-.18,2,.4,2.78-.51a14.36,14.36,0,0,1-3.81-11.31,44.34,44.34,0,0,0,0-6,21.71,21.71,0,0,0-2.11-9.4c-2.53-4.8-5-9.4-2.94-15.05a2.82,2.82,0,0,0-.49-2.84,2.55,2.55,0,0,1-.33-2.35c1.27-6.43,1.43-19.25-.2-25.44-1-3.64-.53-7.44-1.92-11s-2.62-6.93-3.69-10.47c-2.43-8.09-5.27-16.15-4.26-24.81.27-2.27-.61-4.24-1.16-6.2-1.32-4.64-3.18-9.12-4.9-13.63-.68-1.77-1.9-2.6-4-1.46V269h-1c0-.32,0-.65,0-1,0-.83.27-1.8-1-2,0-.33,0-.65,0-1a1,1,0,0,0-1-1c0-.66,0-1.33,0-2a.92.92,0,0,0-.91-1c0-2-1.51-3.31-2.08-5a1,1,0,0,0-1-1l0,0c0-.8.25-1.77-1-2l0,0c.18-.79,1-1.32,1.4-.86,2.51,2.83,6.23,2.75,9.37,3.63,3.36.95,7,1.18,10.42,2.14,1.49.42,3.35.56,4.54-1.12,1.49-2.1,3.57-2,6-1.52.59,4.94,4.55,8,7.06,11.92a34.06,34.06,0,0,1,5.39,15.93c.31,3.74.81,7.47.81,11.24,0,4.09-1,8-1.71,12a8.07,8.07,0,0,0-.19,2.92c1.09,5.2,2.17,10.43,4.25,15.32a19.31,19.31,0,0,1,1.64,9.54c-.62,6.47.45,12.88,1.2,19.2.93,7.79,2.25,15.59,5.35,23,1.25,3,1.44,6.55,2.32,9.84A36.31,36.31,0,0,1,1064,398.4c-.26,3.34-1.72,4.39-4.84,3.2-.76-.29-1.43-.79-2.19-1.09-4-1.6-6.85.21-7,4.46C1050,406,1050,407,1050,408Z" transform="translate(-725.89 -210.38)"/><path class="cls-32" d="M1006,264c-3.13-1.51-4.38-4.8-6.43-7.25-3.44-4.13-6.64-8.46-10.5-12.24a92.65,92.65,0,0,0-9.45-7.68A33.19,33.19,0,0,1,975,232.4c-1.59-1.73-1.3-3.18.81-4.34a6.08,6.08,0,0,1,4.17-1.07l.09.08a.85.85,0,0,0,.93.91l.07.07a.9.9,0,0,0,1,.92c5.24,3.59,10.22,7.35,14.3,12.42,3,3.78,5.4,8,8.69,11.6l0,0c0,.81-.25,1.77,1,2l0,0,0,1c-.21,1.05.52,1.78.86,2.65C1007.78,261,1007.6,261.63,1006,264Z" transform="translate(-725.89 -210.38)"/><path class="cls-9" d="M982,229a.9.9,0,0,1-1-.92A.9.9,0,0,1,982,229Z" transform="translate(-725.89 -210.38)"/><path class="cls-9" d="M981,228a.85.85,0,0,1-.93-.91A.84.84,0,0,1,981,228Z" transform="translate(-725.89 -210.38)"/><path class="cls-33" d="M775,394.93l2-.91c2.67,1.23,5.12,2.65,5,6.16,3.17,4.37,5.76,9.42,10.33,12.4,6.19,4,10.61,9.58,14.86,15.31,1.46,2,1.92,4.73,2.74,7.16.37,1.08-.34,1.86-1.08,2.59-1.9,1.86-3.74,3.79-5.66,5.63-2.2,2.12-3.87,2.49-6.58.88a59,59,0,0,1-9.19-6.33,47.3,47.3,0,0,1-11.22-15.34,18.36,18.36,0,0,0-4.2-6,56.74,56.74,0,0,1-5.46-6.33c-1.57-1.92-2.24-3.53-.71-5.69.25-.36.12-1,.16-1.47l0-1C770.43,401.5,772.39,397.82,775,394.93Z" transform="translate(-725.89 -210.38)"/><path class="cls-34" d="M766,402l0,1c-6.49,1.57-12.33,4.56-18,8-1.42.84-.74,2-1,3a70.1,70.1,0,0,1-9.82-12.58c3.3-2.8,7.12-4.55,10.88-6.39,2.28.62,4.25-2,6.39-.53,1.87,1.12,1.37,3.22,2.22,4.81,2,3.67,2.76,4.1,6.9,2.9A11.1,11.1,0,0,1,766,402Z" transform="translate(-725.89 -210.38)"/><path class="cls-35" d="M852,271l-.09,2c-1.39.42-.92,1.57-.93,2.48,0,4.83,0,9.66-.06,14.49-1.08-.28-1-1.12-1-2,0-3.48,0-6.95,0-10.79-1.22.41-1.25,2-2.56,1.78-5.65-1.16-9.15,2.43-12,6.24-2.65,3.55-6.17,6.32-8.44,10.19s-4.66,7.4-7.14,11c-1.77,2.56-3.9,4.86-5.89,7.26-3.7,4.46-7.75,8.56-11.82,12.65a15.58,15.58,0,0,1-3,2.61c-8.89,5.17-14.31,13.12-17.89,22.45-2.37,6.17-2.39,6.38-9,6.6a3.57,3.57,0,0,0-.93.29c.7,1.6,3,1,3.66,2.67l-1,.09-2.07-.24a.8.8,0,0,0-.87-.78l-1.17-.11c-.2-.78-.74-.94-1.47-.94-2.83,0-5.65,0-8.47-.05l-.71-1.73c.9-.55,2.63.45,2.59-1.78L757,354h-1l-.73-1.79a6.1,6.1,0,0,1,3.44.08c3.43,1,3.39.95,5.47-1.76a31.6,31.6,0,0,1,3.07-3.27,40.37,40.37,0,0,0,7.07-8.78c1.1-1.92,2.09-4.31,4.19-5.4,3.22-1.66,5.41-4.57,8.69-6.3,4-2.12,8-5.09,10.27-9.09s5.22-6.74,8.17-9.81a75.88,75.88,0,0,0,6.81-9c1.1-1.52.93-3.84,2.41-5.22,4.31-4.05,6.37-9.34,8-14.77.65-2.14,1.33-4.24,3.17-5.32a25.92,25.92,0,0,0,4.92-4.08c3.79-3.71,11.66-5.35,15.67-1.37,1.37,1.37,2.5.56,4,.06s1-2.12,2.35-2.22c0,.66,0,1.33,0,2l-.1,2A.94.94,0,0,0,852,271Z" transform="translate(-725.89 -210.38)"/><path class="cls-17" d="M851,290c0-4.83,0-9.66.06-14.49,0-.91-.46-2.06.93-2.48,0,6.52,0,13.05,0,19.57,0,.9.43,2-.93,2.42C851,293.33,851,291.66,851,290Z" transform="translate(-725.89 -210.38)"/><path class="cls-26" d="M774,361.05l1-.09c.93.79,2.42.71,3,2C776.31,363.09,774.67,363.14,774,361.05Z" transform="translate(-725.89 -210.38)"/><path class="cls-17" d="M851,295.06a1,1,0,0,1-1,.93A.94.94,0,0,1,851,295.06Z" transform="translate(-725.89 -210.38)"/><path class="cls-27" d="M1061,460c2.17,3.73,2.53,8.27,5.26,11.75A2.72,2.72,0,0,1,1067,473c.17,5.85,2.49,11.29,3.19,17.09.8,6.58,1.1,13.24,2.31,19.77a2.72,2.72,0,0,1,0,1.27c-.69,2.9-.33,5.8-.11,8.75.21,2.78,0,5.5.45,8.38.63,3.65,1.32,7.27,2.08,10.9.45,2.15.57,4.11,2.4,5.61,1.59,1.31.33,3.09,1,5.22H1068l0,0c-3.07-1.89-3.69-4.52-2.59-7.85a20,20,0,0,0,.77-7.89c-.16-2.17-1.5-4-1.19-6.22.42-3,.06-5.87-2-8.3a4,4,0,0,1-.78-1.26c-2.43-7.36-5.62-14.55-5.18-22.58a3.9,3.9,0,0,0-.23-1.43c-1.29-3.74-1.42-7.75-1.55-11.53-.17-5.3-2.6-10.13-2.39-15.4-2.3-3.56-1.75-7.58-1.83-11.5l2-.06,0,0c.5,1.77,2,.76,3,1h0c.22,1.26,1.18,1,2,1h0c.2,1.3,1.16,1,2,.95a4.72,4.72,0,0,0,1,.07C1061,459.34,1061,459.68,1061,460Z" transform="translate(-725.89 -210.38)"/><path class="cls-36" d="M1061,460c0-.35,0-.69,0-1h2.48c.87-2.56,2.09-4.93,2.38-7.41A5.28,5.28,0,0,1,1069,447h0c.23,1.22,1.19.94,2,1h0c.21,1.24,1.18.95,2,1h0c.2,1.23,1.16.95,2,1,1.75.88,3.43,2.29,5.26,2.54,3.72.51,3.87,2.81,3.8,5.66-.1,4.61,1.53,9.12.92,13.77-5.15-2.7-9.85-6.21-15.17-8.6A25.32,25.32,0,0,0,1063,461a.88.88,0,0,0-1-.92Z" transform="translate(-725.89 -210.38)"/><path class="cls-12" d="M1063.07,551.92a1.15,1.15,0,0,0-.94-1c0-1-.08-2-.11-3,1.76,1.32,3.54,2.59,6,2l0,0C1066.81,551.8,1065.06,552.16,1063.07,551.92Z" transform="translate(-725.89 -210.38)"/><path class="cls-27" d="M1062,460.07a.88.88,0,0,1,1,.92A1,1,0,0,1,1062,460.07Z" transform="translate(-725.89 -210.38)"/><path class="cls-37" d="M756,354h1c0,.81.09,1.81-1,1.95a5.8,5.8,0,0,1-3.31-.54,4.05,4.05,0,0,0-4.86.53c1.57,1.53,3.07,2.3,5,2.07a5.49,5.49,0,0,1,4.16,1c0,1.33-2,.62-2,2h0c-1.77.2-3.51-.22-5.34.59-2.24,1-7.7-.89-8.65-2.74-1.49-2.9-1.81-5.77.28-8.74,5.44-7.7,10.8-15.41,17.76-21.93a32,32,0,0,0,5.08-6c3.2-5.07,7.93-8.76,11.75-13.26,3.23-3.81,7.65-6.75,11.11-10.51,6.08-6.62,12-13.38,16.09-21.5a38.55,38.55,0,0,0,1.43-4.11c2-5.21,5.9-9,9.35-13.07,3-3.5,6.2-6.73,8.65-10.67a11.74,11.74,0,0,1,3.9-3.81c4.51-2.61,6.61-7,9-11.25.9-1.57.25-3.6,1.54-5.05,3.12-4.9,8-7.07,13.4-7.88,5.76-.88,11.45-2.7,17.4-2.12,2.06.2,3.85-2,6.12-.6,1.8,1.09,3.65.24,5.58,0,2.8-.38,5,4.13,3.85,6.9A6.61,6.61,0,0,1,881,228.4c-6,4-10.79,9.36-15.36,14.71-4.79,5.6-9.44,11.57-11.68,18.88-1.38-1.17-3.33-.89-4.8-2.19-3.77-3.37-8.16-5.4-13.43-4.82a7.79,7.79,0,0,1-3-.07,8.44,8.44,0,0,0-7.18,1.33c-3.28,2.16-6,5.12-8.87,7.82-4,3.78-6.44,8.91-9.11,13.75-1.17,2.12-3.11,4.1-3.48,6.35-.92,5.55-5.1,9.26-7.19,14.15-1.92,4.49-6.29,7.47-9.26,11.4a11.59,11.59,0,0,1-5.5,3.85,32.23,32.23,0,0,0-8.26,5.08c-4.34,3.35-7.46,7.91-10.81,12.17-1,1.29-2.08,2.52-3.18,3.71a10.1,10.1,0,0,0-2.46,10.36,9.15,9.15,0,0,1,.52,2.36c.1,3-.8,3.87-3.78,3.77a7.26,7.26,0,0,1-2.36-.52,6.84,6.84,0,0,0-6.34.42C749,353.52,752.62,353.33,756,354Z" transform="translate(-725.89 -210.38)"/><path class="cls-38" d="M939,241c7.73-.12,15.26-1.23,22.27-4.67,3.75-1.85,6.79-1.19,9.54,1.94,3.6,4.12,8.48,6.9,12,11.1.73.86,1.9,1.39,2.14,2.66a111.2,111.2,0,0,0-8,12c.1-1.51-.69-2.33-2-3.06-6.76-3.77-13.76-3.37-20.53-.58a14.07,14.07,0,0,0-7.88,8.32c-.92,2.49-.33,4.88-.61,7.29,0,.82-.28,1.8,1,2h0c0,.81-.24,1.8,1,2h0a.94.94,0,0,0,1,1h0a1,1,0,0,0,1,1,3.06,3.06,0,0,1,1,.12.94.94,0,0,0,1,.91c1,.23,1.83,1.22,3,1.11a26.69,26.69,0,0,0-5.06,4.49c-.84.84-1.81,1.91-3,1.33-2.39-1.2-5.13-.44-7.51-1.78a10,10,0,0,0-8.51-.62,9.25,9.25,0,0,1-6.73,0,9.66,9.66,0,0,0-6.32-.41c-4.58,1.31-9.16.72-13.74.84-3.4.1-7,.67-9.73-2.2-.91-1-2.18-.54-3.19-1.11s-2.52-1.11-2.62-2.6c-.17-2.27-2.21-4.31-.7-6.84a3.7,3.7,0,0,0,0-2.92c-1.32-3.05-1-6.36-1.86-9.49-1.3-4.87-1.11-4.92,1.48-8.84,2-3,1.9-3.43-.74-5.6-.59-.49-1.72-.25-1.81-1.38,0-.34-.07-.69-.1-1l.05-.06c4.17-2.75,7.1-6.8,10.71-10.14,1.3-1.2,2.54-2,4.33-1.77a49,49,0,0,0,23,7.06c3,1.34,12.11,1.33,15,0C938.35,241,938.68,241,939,241Z" transform="translate(-725.89 -210.38)"/><path class="cls-39" d="M881.11,250l-10.22,12a.92.92,0,0,0-.92.93l-.07.07a.92.92,0,0,0-.93.93l-.07.06c-2.14.2-4.18-3-5.93.31-1.14-1.19-1.22-2.11-.75-2.76,2.33-3.15,3.82-6.94,7.11-9.36a5.32,5.32,0,0,0,1.06-1.06A14.51,14.51,0,0,1,883.08,245c.6,0,.88-1.08,1.75-.48,0,.44.08.91.12,1.38l-.05.06a1,1,0,0,0-.93,1l0,0a1,1,0,0,0-.93,1l0,0a.89.89,0,0,0-.91,1l-.06.06A.81.81,0,0,0,881.11,250Z" transform="translate(-725.89 -210.38)"/><path class="cls-40" d="M923,241.05A49,49,0,0,1,900,234c-.28-1.71-2.1-.46-2.77-1.44l2.72-3.68A62.22,62.22,0,0,0,933,237h0l3,3.91Z" transform="translate(-725.89 -210.38)"/><path class="cls-41" d="M977,264a111.2,111.2,0,0,1,8-12h0a1,1,0,0,0,1,1l0,0a1,1,0,0,0,1,1l0,0a1,1,0,0,0,1,1c3.43,1.87,4.94,5.53,7.52,8.22C1002,270,1005.6,278.45,1009,287c-.35,2.49.81,4.81.91,7.19.24,6.12.08,12.24.1,18.37a1.27,1.27,0,0,1-1,1.42c-.54-1.76-1.88-2.2-3.5-2s-2.39-.63-3.5-1.44c-4.45-3.23-8.09-7.31-12-11.07a4.34,4.34,0,0,0-1-.5,6,6,0,0,0-3,3c-2.24,4.14-4.6,8.22-6.74,12.42-4.51,8.84-11.91,13.12-21.58,13.53a72.45,72.45,0,0,0-8.69,1.29c-5.76.94-11.26.49-17,.06-5.41-.41-10.39-3.34-15.92-2.28a.94.94,0,0,1-.5,0c-5.76-2.77-11.8-.83-17.68-.82a32.08,32.08,0,0,0-12.37,2.11,8.8,8.8,0,0,1-6.2.36c-5-1.51-9.36-.87-12.87,3.38a7.21,7.21,0,0,1-5.44,3,3.31,3.31,0,0,1,.74-2.26c1.82-2.49,4.07-4.86,5.11-7.67,1.42-3.78,3.83-4.33,7.26-4.13a10.92,10.92,0,0,1,4.2,1.11c3.36,1.62,6.78,1.05,10,.16,4.57-1.23,9.29-1.18,13.9-2.05a25.55,25.55,0,0,1,10.7.76c4.54,1.1,9.34,1.13,13.87,2.26a30.57,30.57,0,0,0,6.75.84c5.59.16,11-1.53,16.69-1.05s11.37-1.14,16.46-3.48c4.28-2,8.77-4.5,9.63-10.16a12.08,12.08,0,0,1,1.75-4.48,6.35,6.35,0,0,0,.88-4.24,6.9,6.9,0,0,1,3-6.61c.1-.55.56-.72,1-1a7.44,7.44,0,0,0,2.77-8.61c-1.16-3.43-3.92-4.24-7.36-4.46-1.54-.1-2.6,1.9-4.14.6,1.59-2.83,3.78-4.37,6-3.33,2.47,1.15,4.79.68,7.09.85,2.39-4.66,2-5.48-2.64-7.13a34.5,34.5,0,0,0-11-1.69c-4-.07-8.14.53-10.84,4.39-1.16,1.65-1.56,3.54-2.31,5.23a2.35,2.35,0,0,1-2.79-.67,8.14,8.14,0,0,1,.48-10.77c2.89-3,6.65-3.18,10.07-.57,2.26,1.73,4.59,1.72,6.6-.13A6.19,6.19,0,0,0,977,264Z" transform="translate(-725.89 -210.38)"/><path class="cls-42" d="M1009,314a1.27,1.27,0,0,0,1-1.42c0-6.13.14-12.25-.1-18.37-.1-2.38-1.26-4.7-.91-7.19,1.51.24.83,2.57,2.82,2.65,0-3-.09-5.88-.28-8.89-.39-6.19-3.8-11.15-5.56-16.75,1.61-2.39,1.79-3,.88-5.37-.34-.87-1.07-1.6-.86-2.65.33,0,.66,0,1,0,.57,1.73,2.07,3.08,2.08,5a.87.87,0,0,0,.91,1c0,.66,0,1.33,0,2a1,1,0,0,0,1,1c0,.32,0,.64,0,1,0,.81-.24,1.78,1,2,0,.32,0,.65,0,1,.46,1.65-1,3.68,1,5l0,5v18c0,.67,0,1.34,0,2-1.06.29-1,1.11-1,2,0,3-.15,6,0,9,.58,8.95-1.44,17.46-4.4,25.77-1.79,5-3.2,10.12-5.5,14.94-1.18,2.47-1.44,5.32-1.86,8-1,6.09-2.54,12.14-2.27,18.39-.34.31-1,.62-1,.94-.27,7-1.91,13.76-2.95,20.63-.44,2.92-.08,6-.08,8.95s0,5.65,0,8.47l0,0a1.3,1.3,0,0,1-1-1.46c0-1.66.51-3.54-.1-4.93-1.95-4.43,0-8.76.46-12.92.6-5.21,1.65-10.49,2.47-15.71.94-5.9,1.22-11.92,2.1-17.88.8-5.42,1.84-10.77,2.9-16.14.43-2.14,2-4.24.95-6.69L1000,341c0-.33-.12-.76,0-1,3.65-4.82,5-10.69,7.35-16.12A19.39,19.39,0,0,0,1009,314Z" transform="translate(-725.89 -210.38)"/><path class="cls-8" d="M936,240.92,933,237h3c3.81,0,3.81,0,6.72,2.55-.93,1.27-3.09-.64-3.71,1.44-.32,0-.65,0-1,0Z" transform="translate(-725.89 -210.38)"/><path class="cls-38" d="M988,255a1,1,0,0,1-1-1A.91.91,0,0,1,988,255Z" transform="translate(-725.89 -210.38)"/><path class="cls-38" d="M987,254a1,1,0,0,1-1-1A.92.92,0,0,1,987,254Z" transform="translate(-725.89 -210.38)"/><path class="cls-38" d="M986,253a1,1,0,0,1-1-1A.94.94,0,0,1,986,253Z" transform="translate(-725.89 -210.38)"/><path class="cls-42" d="M994,416c.33.31.93.61,1,.94a65.39,65.39,0,0,0,3.88,17.63A8.77,8.77,0,0,1,999,437c-.32,0-.64,0-1,0q-2-7.49-4-15,0-3,0-6Z" transform="translate(-725.89 -210.38)"/><path class="cls-21" d="M998,437c.32,0,.64,0,1,0,0,.66,0,1.32,0,2L999,439C997.76,438.74,998,437.8,998,437Z" transform="translate(-725.89 -210.38)"/><path class="cls-43" d="M766,402a11.1,11.1,0,0,0-2.46.18c-4.14,1.2-4.91.77-6.9-2.9-.85-1.59-.35-3.69-2.22-4.81-2.14-1.47-4.11,1.15-6.39.53,3.53-3,8-3.79,12.29-4.82a7,7,0,0,0,4.68-3c2.89-4.28,6.93-7.44,10.57-11,.27-.27.94-.14,1.43-.2-1,2.3-3.42,3.44-4.73,5.49,1.29,3.4,4.47,5.25,6.33,8.39-.76,1.66-3.69,2.32-3.59,5.07C772.39,397.82,770.43,401.5,766,402Z" transform="translate(-725.89 -210.38)"/><path class="cls-25" d="M765,368c1.14-1.92,3-2.08,5-2C768.84,367.87,767,368.05,765,368Z" transform="translate(-725.89 -210.38)"/><path class="cls-25" d="M770,366c.24-1.24,1.2-1,2-1C771.77,366.25,770.81,366,770,366Z" transform="translate(-725.89 -210.38)"/><path class="cls-43" d="M777,375l1,.05a1,1,0,0,1-1,.91A7.7,7.7,0,0,1,777,375Z" transform="translate(-725.89 -210.38)"/><path class="cls-6" d="M1068,550c-2.41.61-4.19-.66-6-2-.27-1-1.36-1.78-1-3,.8,0,1.63.1,1.94-1,1.16-4.31,1.69-8.55.13-13-.57-1.6-1.44-3.24-1.19-5.19s-1.07-4-2.25-5.26c-4.48-4.65-4.57-10.91-6.78-16.37-2.6-6.4-.55-12.8-.79-19.18a56.4,56.4,0,0,0-2.36-13.86,33.16,33.16,0,0,0-3.84-7.7c-.17-.28-.46-.49-.63-.77-2.24-3.72-1.8-6,1.7-8.55l1-.13,0,0a1,1,0,0,0,1,1.05c.23,1.2,1.19.91,2,1h0c.08,3.92-.47,7.94,1.83,11.5-.21,5.27,2.22,10.1,2.39,15.4.13,3.78.26,7.79,1.55,11.53a3.9,3.9,0,0,1,.23,1.43c-.44,8,2.75,15.22,5.18,22.58a4,4,0,0,0,.78,1.26c2.07,2.43,2.43,5.32,2,8.3-.31,2.24,1,4.05,1.19,6.22a20,20,0,0,1-.77,7.89C1064.28,545.46,1064.9,548.09,1068,550Z" transform="translate(-725.89 -210.38)"/><path class="cls-44" d="M1048,454l-1,.13a53,53,0,0,1-12.21-4.78c-1-.58-1.51-.21-1.87.73a8,8,0,0,1-.83-.14c-.45-1.3.78-3-1-4a16.86,16.86,0,0,0-2-8c.1-1.25-.48-2.58.48-3.79,3.56.61,6.7,2.77,10.4,2.91.38,1.35,1.6.74,2.43,1.07,3.2,1.27,3.53,1.91,3.62,5.41.08,2.86-1.39,5.41-1.52,8.2C1045.66,452.53,1047.3,452.53,1048,454Z" transform="translate(-725.89 -210.38)"/><path class="cls-45" d="M870,424c-1.74,3.68-1.79,7.79-2.9,11.64A52.08,52.08,0,0,1,865,442c-1.43.8-1.57,2.29-2,3.64a117.92,117.92,0,0,1-7.73,17.85,15.05,15.05,0,0,1-3.47,4.11,1.85,1.85,0,0,1-2.73-.27c1.08-2.66,2-5.41,3.31-8A7.16,7.16,0,0,0,853,456h0c3.32-4.47,4.68-9.73,6-15h0c2.16-2.63,3.84-5.47,4-9h0c1.26-.21,1-1.19,1-2-.12-2.27,2.15-3.72,2-6,.27-.16.75-.31.77-.49.58-7.05,3.5-13.63,4.19-20.65.19-1.91,1-2.16,3-1.41V410a4.7,4.7,0,0,1,0,1c-1.68.62-.7,2-.89,3.08a4.88,4.88,0,0,1-.09.93c-1.24.27-.94,1.23-.91,2.07a7.32,7.32,0,0,1-.09.93c-1.23.27-.93,1.23-.93,2.06a4.13,4.13,0,0,1-.11.92A1,1,0,0,0,870,422Z" transform="translate(-725.89 -210.38)"/><path class="cls-24" d="M859,441c-1.31,5.27-2.67,10.53-6,15C854.3,450.72,855.7,445.48,859,441Z" transform="translate(-725.89 -210.38)"/><path class="cls-24" d="M863,432c-.17,3.52-1.85,6.36-4,9C859.17,437.48,860.85,434.64,863,432Z" transform="translate(-725.89 -210.38)"/><path class="cls-24" d="M864,430c0,.82.27,1.8-1,2C863,431.18,862.75,430.21,864,430Z" transform="translate(-725.89 -210.38)"/><path class="cls-7" d="M755,361c0-1.37,2-.66,2-2l3-.09c2.82,0,5.64.06,8.47.05.73,0,1.27.16,1.47.94C765,360.17,759.9,359.46,755,361Z" transform="translate(-725.89 -210.38)"/><path class="cls-26" d="M771.1,360a.8.8,0,0,1,.87.78C771.31,361,771.06,360.66,771.1,360Z" transform="translate(-725.89 -210.38)"/><path class="cls-23" d="M872,371c1.42.37.79,1.56,1,2.44a91,91,0,0,1,2.15,14.9,117.29,117.29,0,0,1,.82,11.71c0,.84.08,1.66-1,1.95a8.25,8.25,0,0,0-1.06-5.19,7.39,7.39,0,0,1-.55-6.59c.82-2.59.37-5,0-7.63C872.92,378.75,871.76,375,872,371Z" transform="translate(-725.89 -210.38)"/><path class="cls-46" d="M1041.06,437c-1.26-1.55-3.65-1-4.74-2.41-1.33-3.78.84-7.11.78-10.65a2.23,2.23,0,0,1,2.49-1.89c1.8,0,3.6,0,5.4,0l15,4.06c.24,1.19,1.19.9,2,.95h0c.23,1.25,1.19,1,2,1h0c2.7,1.69,2.74,1.68,4,5.53a17.89,17.89,0,0,0,1.79,3.9A6.68,6.68,0,0,1,1069,446a5.06,5.06,0,0,1-1-.06c-.23-1.21-1.19-.93-2-1h0c-.24-1.24-1.2-1-2-1a64.68,64.68,0,0,1-9.56-3.21A56.07,56.07,0,0,0,1041.06,437Z" transform="translate(-725.89 -210.38)"/><path class="cls-47" d="M1041.06,437a56.07,56.07,0,0,1,13.37,3.85A64.68,64.68,0,0,0,1064,444c.24,1.23,1.2,1,2,1h0c.21,1.24,1.17,1,2,1a5.06,5.06,0,0,0,1,.06v1a5.28,5.28,0,0,0-3.1,4.56c-.29,2.48-1.51,4.85-2.38,7.41H1061a4.72,4.72,0,0,1-1-.07c-.27-1.14-1.2-.9-2-.95h0c-.24-1.22-1.19-.94-2-1h0c-.51-1.73-2-.74-3-1l0,0c-.23-1.19-1.2-.91-2-1-.58-1.64-2-.74-3-1l0,0c-.7-1.45-2.34-1.45-3.5-2.25.13-2.79,1.6-5.34,1.52-8.2-.09-3.5-.42-4.14-3.62-5.41-.83-.33-2.05.28-2.43-1.07Z" transform="translate(-725.89 -210.38)"/><path class="cls-48" d="M1060,426.06,1045,422c-.31-1.33-1.39-.89-2.25-1s-2.27.6-2.75-1h4.58c1-3.38,1.88-6.59,2.78-9.75,4.5-1,8.47.68,12.49,1.78,1.81.49,2.8,1.81,3.25,3.88.66,3.05,1.61,6-.2,8.66.84,2.12,3.37,1.62,4.1,3.41l-3,0h0c-.23-1.22-1.19-1-2-1h0C1061.77,425.76,1060.82,426,1060,426.06Z" transform="translate(-725.89 -210.38)"/><path class="cls-47" d="M1071,448c-.81,0-1.77.25-2-1C1069.81,447,1070.77,446.76,1071,448Z" transform="translate(-725.89 -210.38)"/><path class="cls-47" d="M1073,449c-.81,0-1.78.25-2-1C1071.82,448,1072.78,447.76,1073,449Z" transform="translate(-725.89 -210.38)"/><path class="cls-47" d="M1075,450c-.81,0-1.77.25-2-1C1073.81,449,1074.77,448.76,1075,450Z" transform="translate(-725.89 -210.38)"/><path class="cls-49" d="M885,247c.09,1.13,1.22.89,1.81,1.38,2.64,2.17,2.7,2.62.74,5.6-2.59,3.92-2.78,4-1.48,8.84.83,3.13.54,6.44,1.86,9.49a3.7,3.7,0,0,1,0,2.92c-1.51,2.53.53,4.57.7,6.84.1,1.49,1.48,2,2.62,2.6s2.28.15,3.19,1.11c2.73,2.87,6.33,2.3,9.73,2.2,4.58-.12,9.16.47,13.74-.84a9.66,9.66,0,0,1,6.32.41,9.25,9.25,0,0,0,6.73,0,10,10,0,0,1,8.51.62c2.38,1.34,5.12.58,7.51,1.78,1.16.58,2.13-.49,3-1.33a26.69,26.69,0,0,1,5.06-4.49c1.12.12,1.94,1.19,3.2.91a1.8,1.8,0,0,1,2.12.87c.92,2.57,3.57,3.74,4.66,6.13-1.07.34-1.29,1.1-.52,1.8,1.78,1.62,2.5,3.87,3.44,5.89a7.08,7.08,0,0,1-2.52,9.31c-4,2.66-8.3,5.06-13.46,5-3.08,0-6.18-.42-9.24.85a5,5,0,0,1-4.33-.25c-1.26-.81-2.54-.56-3.83-.64-4.73-.3-9.55.79-14.19-1a3.79,3.79,0,0,0-2,0c-3,.6-5.86-.14-8.82-.7-2.36-.46-4.69-2.07-7.1-1.23-1.86.65-3.6.46-5.4.61-2,.16-3.92.08-5.86.3-1.3.15-2.65-.35-3.9.35-3.23,1.81-6-.3-8.64-1.42s-5.14-3.29-7.56-4.91c-2.71.79-4.24,2.79-6,4.45-1.17,1.07-2,2.83-4,2.52a79,79,0,0,1,1.75-12.43,30.94,30.94,0,0,0-.17-14.2c-1.43-5.21.34-9.6,2.53-13.81a39.41,39.41,0,0,1,8.13-10.33c1.91-1.78,3.89-3.51,4.77-6.15.66-2,2.59-2.93,3.86-4.43.92-1.1,2.46-1.83,2.11-3.66l0-1,0,0Z" transform="translate(-725.89 -210.38)"/><path class="cls-50" d="M861,313c2,.31,2.83-1.45,4-2.52,1.8-1.66,3.33-3.66,6-4.45,2.42,1.62,4.79,3.73,7.56,4.91s5.41,3.23,8.64,1.42c1.25-.7,2.6-.2,3.9-.35,1.94-.22,3.91-.14,5.86-.3,1.8-.15,3.54,0,5.4-.61,2.41-.84,4.74.77,7.1,1.23,3,.56,5.8,1.3,8.82.7a3.79,3.79,0,0,1,2,0c4.64,1.76,9.46.67,14.19,1,1.29.08,2.57-.17,3.83.64a5,5,0,0,0,4.33.25c3.06-1.27,6.16-.88,9.24-.85,5.16,0,9.42-2.35,13.46-5a7.08,7.08,0,0,0,2.52-9.31c-.94-2-1.66-4.27-3.44-5.89-.77-.7-.55-1.46.52-1.8l0,0a1,1,0,0,0,1,.94,3.94,3.94,0,0,1,1,.09,1,1,0,0,0,1,.9,5.32,5.32,0,0,1,1,.06c.57,1.69,2,.71,3,.93a31.31,31.31,0,0,0,10-1,6.9,6.9,0,0,0-3,6.61,6.35,6.35,0,0,1-.88,4.24,12.08,12.08,0,0,0-1.75,4.48c-.86,5.66-5.35,8.2-9.63,10.16-5.09,2.34-10.69,4-16.46,3.48s-11.1,1.21-16.69,1.05a30.57,30.57,0,0,1-6.75-.84C922.29,322,917.49,322,913,320.9a25.55,25.55,0,0,0-10.7-.76c-4.61.87-9.33.82-13.9,2.05-3.26.89-6.68,1.46-10-.16a10.92,10.92,0,0,0-4.2-1.11c-3.43-.2-5.84.35-7.26,4.13-1,2.81-3.29,5.18-5.11,7.67A3.31,3.31,0,0,0,861,335l-.48,0H860A24.7,24.7,0,0,1,861,313Z" transform="translate(-725.89 -210.38)"/><path class="cls-8" d="M870,262.9a.92.92,0,0,1,.92-.93C870.93,262.62,870.62,262.93,870,262.9Z" transform="translate(-725.89 -210.38)"/><path class="cls-8" d="M883.94,247l0,1h-.48l-.49,0A1,1,0,0,1,883.94,247Z" transform="translate(-725.89 -210.38)"/><path class="cls-8" d="M881.11,250a.81.81,0,0,1,.88-1A.88.88,0,0,1,881.11,250Z" transform="translate(-725.89 -210.38)"/><path class="cls-8" d="M882.05,249a.89.89,0,0,1,.91-1A.9.9,0,0,1,882.05,249Z" transform="translate(-725.89 -210.38)"/><path class="cls-8" d="M869,263.9a.92.92,0,0,1,.93-.93Q869.95,263.95,869,263.9Z" transform="translate(-725.89 -210.38)"/><path class="cls-51" d="M1040,406c.82,1.93,2.51.58,3.74,1,1.07.35,2.6-.77,3.23,1h-6.37c-2,3.24-1.71,7.59-4.31,10.89-2.83-1.55-6.73.07-9.31-2.85a50.32,50.32,0,0,1-2-14C1029.75,404.33,1034.62,406.14,1040,406Z" transform="translate(-725.89 -210.38)"/><path class="cls-52" d="M1016,349c-1-1.53-.87-3.29-1-5,.17-3.59,0-7.08-2.42-10.1a4.14,4.14,0,0,1-.15-4.62c.76-1.44.42-2.87.63-4.29,1.63-.55.92-1.92.93-2.92,0-8.36,0-16.72,0-25.08,0-.32,0-.65,0-1,2-1.11.73-3,1-4.46.37-2.47-.47-5.09.72-7.88a6.53,6.53,0,0,1,2.33,6,59.11,59.11,0,0,0,2,18.43,51.8,51.8,0,0,1,2,15.91,7.36,7.36,0,0,0,0,2,107.57,107.57,0,0,1,1.86,19.92c.11,4.56-2.25,8.47-4.85,12.15a2.4,2.4,0,0,1-1.06-1.43C1017.24,354.13,1017.72,351.28,1016,349Z" transform="translate(-725.89 -210.38)"/><path class="cls-53" d="M1014,297c0,8.36,0,16.72,0,25.08,0,1,.7,2.37-.93,2.92q0-13-.07-26c0-.68,0-1.35,0-2l.49,0Z" transform="translate(-725.89 -210.38)"/><path class="cls-53" d="M1016,349c1.74,2.27,1.26,5.12,2,7.65a2.4,2.4,0,0,0,1.06,1.43c2.6-3.68,5-7.59,4.85-12.15A107.57,107.57,0,0,0,1022,326a7.36,7.36,0,0,1,0-2,51.8,51.8,0,0,0-2-15.91,59.11,59.11,0,0,1-2-18.43,6.53,6.53,0,0,0-2.33-6c-1.19,2.79-.35,5.41-.72,7.88-.22,1.49,1.08,3.35-1,4.46l0-17c0-1.55,0-3.1,0-4.65a1.26,1.26,0,0,0-1-1.36c0-1.33,0-2.66,0-4v-3.44c2.09-1.14,3.31-.31,4,1.46,1.72,4.51,3.58,9,4.9,13.63.55,2,1.43,3.93,1.16,6.2-1,8.66,1.83,16.72,4.26,24.81,1.07,3.54,2.35,7,3.69,10.47s1,7.35,1.92,11c1.63,6.19,1.47,19,.2,25.44a2.55,2.55,0,0,0,.33,2.35,2.82,2.82,0,0,1,.49,2.84c-2,5.65.41,10.25,2.94,15.05a21.71,21.71,0,0,1,2.11,9.4,44.34,44.34,0,0,1,0,6,14.36,14.36,0,0,0,3.81,11.31c-.82.91-1.87.33-2.78.51-5.38.13-10.25-1.68-15-4-.92-4-1.47-8-2.08-12-1-6.27-2.33-12.49-3.28-18.77C1018.53,363.79,1016,356.61,1016,349Z" transform="translate(-725.89 -210.38)"/><path class="cls-54" d="M998,437c0,.83-.28,1.77.93,2-.26,1.55.61,2.82,1,4.21q3.54,12.72,6.94,25.48c.21.77.31,1.78-.62,2.17a1.89,1.89,0,0,1-2.28-.44,10.07,10.07,0,0,1-1.75-2.89c-1.82-5.81-3.4-11.7-5.3-17.48-1.31-4-1.5-8.42-4-12.05h0c.34-3.49-1-6.73-1.54-10.09-.69-4-1.84-8-1.47-12.12.11-1.25.4-2.16,2-2.52,0,3.11.37,6.08,2,8.7Q996,429.49,998,437Z" transform="translate(-725.89 -210.38)"/><path class="cls-1" d="M992.92,440c-1.21-.27-.88-1.23-.9-2a7.73,7.73,0,0,0,1,.06h0Z" transform="translate(-725.89 -210.38)"/><path class="cls-26" d="M756,354c-3.38-.67-7-.48-10.47-3.09a6.84,6.84,0,0,1,6.34-.42,7.26,7.26,0,0,0,2.36.52c3,.1,3.88-.8,3.78-3.77a9.15,9.15,0,0,0-.52-2.36A10.1,10.1,0,0,1,760,334.52c1.1-1.19,2.17-2.42,3.18-3.71,3.35-4.26,6.47-8.82,10.81-12.17a32.23,32.23,0,0,1,8.26-5.08,11.59,11.59,0,0,0,5.5-3.85c3-3.93,7.34-6.91,9.26-11.4,2.09-4.89,6.27-8.6,7.19-14.15.37-2.25,2.31-4.23,3.48-6.35,2.67-4.84,5.14-10,9.11-13.75,2.83-2.7,5.59-5.66,8.87-7.82a8.44,8.44,0,0,1,7.18-1.33,7.79,7.79,0,0,0,3,.07c5.27-.58,9.66,1.45,13.43,4.82,1.47,1.3,3.42,1,4.8,2.19.37,1.51-1.33,2.5-1,4-1.32.1-1,1.77-2.35,2.22s-2.61,1.31-4-.06c-4-4-11.88-2.34-15.67,1.37a25.92,25.92,0,0,1-4.92,4.08c-1.84,1.08-2.52,3.18-3.17,5.32-1.66,5.43-3.72,10.72-8,14.77-1.48,1.38-1.31,3.7-2.41,5.22a75.88,75.88,0,0,1-6.81,9c-2.95,3.07-6,5.94-8.17,9.81s-6.27,7-10.27,9.09c-3.28,1.73-5.47,4.64-8.69,6.3-2.1,1.09-3.09,3.48-4.19,5.4a40.37,40.37,0,0,1-7.07,8.78,31.6,31.6,0,0,0-3.07,3.27c-2.08,2.71-2,2.79-5.47,1.76a6.1,6.1,0,0,0-3.44-.08Z" transform="translate(-725.89 -210.38)"/><path class="cls-50" d="M862,340c1.21.22.92,1.17,1,2C861.75,341.77,862.05,340.81,862,340Z" transform="translate(-725.89 -210.38)"/><path class="cls-50" d="M861.05,338a1,1,0,0,1,.93,1A.9.9,0,0,1,861.05,338Z" transform="translate(-725.89 -210.38)"/><path class="cls-2" d="M856,466.05c-.29,1,.71,2.44-1,2.95C855.25,468,854.27,466.55,856,466.05Z" transform="translate(-725.89 -210.38)"/><path class="cls-2" d="M855,469c0,.81.25,1.78-1,2C854,470.18,853.78,469.23,855,469Z" transform="translate(-725.89 -210.38)"/><path class="cls-2" d="M854,471c0,.81.25,1.79-1,2C853,472.18,852.76,471.22,854,471Z" transform="translate(-725.89 -210.38)"/><path class="cls-2" d="M853,473c0,.82.26,1.79-1,2C852,474.17,851.76,473.22,853,473Z" transform="translate(-725.89 -210.38)"/><path class="cls-17" d="M852,271a.94.94,0,0,1,.88-1A.88.88,0,0,1,852,271Z" transform="translate(-725.89 -210.38)"/><path class="cls-15" d="M873.06,414.07c.19-1.06-.79-2.46.89-3.08C873.83,412.07,874.66,413.42,873.06,414.07Z" transform="translate(-725.89 -210.38)"/><path class="cls-15" d="M872.06,417.07c0-.84-.33-1.8.91-2.07,0,.66,0,1.33,0,2h0A5,5,0,0,0,872.06,417.07Z" transform="translate(-725.89 -210.38)"/><path class="cls-55" d="M990,378c-1.67.24-.69,2-1.55,3-5.49-1.09-7.72,3.3-10.28,6.68-1.21,1.61-2.67,2.83-3.83,4.47-2.42-.84-2.87-2.86-3.34-4.69a38.74,38.74,0,0,0-3.65-9.9c-1.54-2.64-2.41-6.09-1.1-9,2.27-5,.32-9-2.22-13a63.41,63.41,0,0,1-4.15-8.23c-1.27-2.79-.46-5,1.68-6.32,2.44-1.52,4.23-3.95,7.34-4.64,2.53-.57,4.49-2.49,6.51-4.25,5.06-4.44,9.21-9.77,14.22-14.21a5.76,5.76,0,0,1,4.1,4.71c1,5.75,2.5,11.59.23,17.66,1.73,1.77,3.76,3.62,3,6.67.18,1.07-.66,1.84-.85,2.76-1.47,6.81-2.52,13.72-4.33,20.43C991.11,372.79,992,375.74,990,378Z" transform="translate(-725.89 -210.38)"/><path class="cls-56" d="M990,378c1.92-2.28,1.07-5.23,1.78-7.83,1.81-6.71,2.86-13.62,4.33-20.43.19-.92,1-1.69.85-2.76,1.63-.85.84-2.93,2-4,1.21-.21,1-1.17,1-2h0l1.74-.74c1.08,2.45-.52,4.55-.95,6.69-1.06,5.37-2.1,10.72-2.9,16.14-.88,6-1.16,12-2.1,17.88-.82,5.22-1.87,10.5-2.47,15.71-.47,4.16-2.41,8.49-.46,12.92.61,1.39.13,3.27.1,4.93a1.3,1.3,0,0,0,1,1.46q0,3,0,6c-1.68-2.62-2-5.59-2-8.7-1.58.36-1.87,1.27-2,2.52-.37,4.16.78,8.11,1.47,12.12.58,3.36,1.88,6.6,1.54,10.09a7.73,7.73,0,0,1-1-.06,3.17,3.17,0,0,0-.06-1c-.2-1,.65-2.4-1-3,0-.33,0-.67-.08-1,.05-.83.25-1.74-.89-2.06a3.62,3.62,0,0,0,0-.93c-.34-1.34.86-3.05-1-4h0c0-1.5-.06-3,0-4.5a1.35,1.35,0,0,0-1-1.5q0-9.48,0-19a84.85,84.85,0,0,1,1.88-17A34,34,0,0,0,990,378Z" transform="translate(-725.89 -210.38)"/><path class="cls-1" d="M988,420a1.35,1.35,0,0,1,1,1.5c0,1.5,0,3,0,4.5a1.19,1.19,0,0,1-1-1.3C988,423.12,988,421.56,988,420Z" transform="translate(-725.89 -210.38)"/><path class="cls-1" d="M989,426c1.85,1,.65,2.67,1,4C988,429.07,989.39,427.31,989,426Z" transform="translate(-725.89 -210.38)"/><path class="cls-1" d="M991,434c1.6.6.75,2,1,3C990.26,436.43,991.27,435,991,434Z" transform="translate(-725.89 -210.38)"/><path class="cls-42" d="M1000,341c0,.8.22,1.76-1,2C999,342.19,998.76,341.22,1000,341Z" transform="translate(-725.89 -210.38)"/><path class="cls-1" d="M990,430.93c1.14.32.94,1.23.89,2.06C989.7,432.71,990.05,431.74,990,430.93Z" transform="translate(-725.89 -210.38)"/><path class="cls-28" d="M872.06,417.07A5,5,0,0,1,873,417c-.23,1,.68,2.44-1,3l0,0,0-2A7.32,7.32,0,0,0,872.06,417.07Z" transform="translate(-725.89 -210.38)"/><path class="cls-28" d="M870.93,421a4.13,4.13,0,0,0,.11-.92,7.73,7.73,0,0,1,1-.06l0,0c-.08.8.15,1.75-1,2l0-.05C871,421.66,871,421.32,870.93,421Z" transform="translate(-725.89 -210.38)"/><path class="cls-28" d="M870,424,870,422l1,0,0,.05C871,422.84,871.23,423.84,870,424Z" transform="translate(-725.89 -210.38)"/><path class="cls-19" d="M1013,269c0,1.33,0,2.66,0,4,0,.35,0,.69-.07,1-2-1.35-.52-3.38-1-5Z" transform="translate(-725.89 -210.38)"/><path class="cls-3" d="M1006,255c-1.24-.19-1-1.15-1-2C1006.25,253.2,1006,254.17,1006,255Z" transform="translate(-725.89 -210.38)"/><path class="cls-19" d="M1012,268c-1.22-.25-.94-1.22-1-2C1012.25,266.22,1012,267.19,1012,268Z" transform="translate(-725.89 -210.38)"/><path class="cls-3" d="M1010,262a.87.87,0,0,1-.91-1A.92.92,0,0,1,1010,262Z" transform="translate(-725.89 -210.38)"/><path class="cls-3" d="M1007,256c-.32,0-.65,0-1,0l0-1A1,1,0,0,1,1007,256Z" transform="translate(-725.89 -210.38)"/><path class="cls-19" d="M1011,265a1,1,0,0,1-1-1A1,1,0,0,1,1011,265Z" transform="translate(-725.89 -210.38)"/><path class="cls-26" d="M760,358.93l-3,.09a5.49,5.49,0,0,0-4.16-1c-1.92.23-3.42-.54-5-2.07a4.05,4.05,0,0,1,4.86-.53A5.8,5.8,0,0,0,756,356c1.07-.14,1-1.14,1-1.95l4.87,1.42c0,2.23-1.69,1.23-2.59,1.78Z" transform="translate(-725.89 -210.38)"/><path class="cls-36" d="M1053,456c1,.28,2.45-.71,3,1C1055,456.74,1053.53,457.75,1053,456Z" transform="translate(-725.89 -210.38)"/><path class="cls-44" d="M1051,455c.78.09,1.75-.19,2,1l-2,.06h0c0-.33,0-.66,0-1Z" transform="translate(-725.89 -210.38)"/><path class="cls-36" d="M1056,457c.81,0,1.76-.26,2,1C1057.19,458,1056.23,458.27,1056,457Z" transform="translate(-725.89 -210.38)"/><path class="cls-36" d="M1058,458c.79,0,1.72-.19,2,.95C1059.19,459,1058.23,459.28,1058,458Z" transform="translate(-725.89 -210.38)"/><path class="cls-57" d="M969,294a5.32,5.32,0,0,0-1-.06.93.93,0,0,0-1-.9,3.94,3.94,0,0,0-1-.09,1,1,0,0,0-1-.94l0,0c-1.09-2.39-3.74-3.56-4.66-6.13a1.8,1.8,0,0,0-2.12-.87c-1.26.28-2.08-.79-3.2-.91-1.17.11-2-.88-3-1.11a.86.86,0,0,0-1-.91,3.06,3.06,0,0,0-1-.12,1,1,0,0,0-1-1h0a1,1,0,0,0-1-1h0c-.06-.81.18-1.77-1-2h0c0-.82.22-1.77-1-2,.28-2.41-.31-4.8.61-7.29a14.07,14.07,0,0,1,7.88-8.32c6.77-2.79,13.77-3.19,20.53.58,1.29.73,2.08,1.55,2,3.06a6.19,6.19,0,0,1-2.15,2.67c-2,1.85-4.34,1.86-6.6.13-3.42-2.61-7.18-2.4-10.07.57a8.14,8.14,0,0,0-.48,10.77,2.35,2.35,0,0,0,2.79.67c.75-1.69,1.15-3.58,2.31-5.23,2.7-3.86,6.87-4.46,10.84-4.39a34.5,34.5,0,0,1,11,1.69c4.65,1.65,5,2.47,2.64,7.13-2.3-.17-4.62.3-7.09-.85-2.22-1-4.41.5-6,3.33,1.54,1.3,2.6-.7,4.14-.6,3.44.22,6.2,1,7.36,4.46a7.44,7.44,0,0,1-2.77,8.61c-.39.3-.85.47-1,1a31.31,31.31,0,0,1-10,1C971.43,293.32,970,294.24,969,294Zm.18-8.57c1.18,1.75,2.49,2.91,4.59,2.54,1.42-.25,3.24.74,4.35-1.32-1.78-1.15-4-.44-5.43-2.28C971.78,283.24,970.29,284.05,969.18,285.47Z" transform="translate(-725.89 -210.38)"/><path class="cls-9" d="M936,240.92l2,.11c-2.91,1.35-12,1.36-15,0Z" transform="translate(-725.89 -210.38)"/><path class="cls-49" d="M947,278c1.21.2,1,1.16,1,2C946.75,279.82,947,278.83,947,278Z" transform="translate(-725.89 -210.38)"/><path class="cls-49" d="M946,276c1.19.27,1,1.22,1,2C945.73,277.77,946,276.79,946,276Z" transform="translate(-725.89 -210.38)"/><path class="cls-49" d="M948,280a1,1,0,0,1,1,1A.94.94,0,0,1,948,280Z" transform="translate(-725.89 -210.38)"/><path class="cls-49" d="M949,281a1,1,0,0,1,1,1A1,1,0,0,1,949,281Z" transform="translate(-725.89 -210.38)"/><path class="cls-8" d="M885,247l-1-.05a1,1,0,0,1,.93-1C884.93,246.3,885,246.65,885,247Z" transform="translate(-725.89 -210.38)"/><path class="cls-49" d="M951,282.1a.86.86,0,0,1,1,.91A.94.94,0,0,1,951,282.1Z" transform="translate(-725.89 -210.38)"/><path class="cls-19" d="M1014,279l0,17c0,.32,0,.65,0,1h-.5l-.49,0V279Z" transform="translate(-725.89 -210.38)"/><path class="cls-31" d="M1014,279h-1l0-5c0-.34,0-.68.07-1a1.26,1.26,0,0,1,1,1.36C1014,275.9,1014,277.45,1014,279Z" transform="translate(-725.89 -210.38)"/><path class="cls-44" d="M1048,454c1,.22,2.43-.68,3,1l0,.06-2,0A1,1,0,0,1,1048,454Z" transform="translate(-725.89 -210.38)"/><path class="cls-27" d="M1049,455.05l2,0c0,.33,0,.66,0,1C1050.19,456,1049.23,456.25,1049,455.05Z" transform="translate(-725.89 -210.38)"/><path class="cls-15" d="M872,420a7.73,7.73,0,0,0-1,.06c0-.83-.3-1.79.93-2.06Z" transform="translate(-725.89 -210.38)"/><path class="cls-15" d="M871,422l-1,0a1,1,0,0,1,.89-1.06C871,421.32,871,421.66,871,422Z" transform="translate(-725.89 -210.38)"/><path class="cls-16" d="M1060,426.06c.82,0,1.77-.3,2,.95C1061.19,427,1060.24,427.25,1060,426.06Z" transform="translate(-725.89 -210.38)"/><path class="cls-16" d="M1062,427c.82,0,1.78-.25,2,1C1063.19,428,1062.23,428.26,1062,427Z" transform="translate(-725.89 -210.38)"/><path class="cls-16" d="M1066,445c-.82,0-1.78.26-2-1C1064.81,444,1065.77,443.74,1066,445Z" transform="translate(-725.89 -210.38)"/><path class="cls-16" d="M1068,446c-.82,0-1.78.27-2-1C1066.82,445,1067.78,444.75,1068,446Z" transform="translate(-725.89 -210.38)"/><path class="cls-49" d="M969,294c1,.2,2.43-.72,3,.93C971,294.75,969.57,295.73,969,294Z" transform="translate(-725.89 -210.38)"/><path class="cls-49" d="M965,292.05a1,1,0,0,1,1,.94A1,1,0,0,1,965,292.05Z" transform="translate(-725.89 -210.38)"/><path class="cls-49" d="M967,293.08a.93.93,0,0,1,1,.9A1,1,0,0,1,967,293.08Z" transform="translate(-725.89 -210.38)"/><path class="cls-58" d="M969.18,285.47c1.11-1.42,2.6-2.23,3.51-1.06,1.43,1.84,3.65,1.13,5.43,2.28-1.11,2.06-2.93,1.07-4.35,1.32C971.67,288.38,970.36,287.22,969.18,285.47Z" transform="translate(-725.89 -210.38)"/></svg>